<svg width="20" height="21" viewBox="0 0 20 21" fill="none" xmlns="http://www.w3.org/2000/svg">
<path d="M0.833008 3.83337V8.83337H5.83301" stroke="black" stroke-linecap="round" stroke-linejoin="round"/>
<path d="M19.167 17.1666V12.1666H14.167" stroke="black" stroke-linecap="round" stroke-linejoin="round"/>
<path d="M17.0747 7.99998C16.652 6.80564 15.9337 5.73782 14.9868 4.89616C14.0398 4.05451 12.8951 3.46645 11.6594 3.18686C10.4238 2.90727 9.13738 2.94527 7.92035 3.29729C6.70332 3.64932 5.5953 4.30391 4.69967 5.19998L0.833008 8.83331M19.1663 12.1666L15.2997 15.8C14.4041 16.6961 13.296 17.3506 12.079 17.7027C10.862 18.0547 9.5756 18.0927 8.33991 17.8131C7.10423 17.5335 5.95951 16.9455 5.01256 16.1038C4.06562 15.2621 3.34731 14.1943 2.92467 13" stroke="black" stroke-linecap="round" stroke-linejoin="round"/>
</svg>
