<svg width="50" height="50" viewBox="0 0 50 50" fill="none" xmlns="http://www.w3.org/2000/svg">
<g clip-path="url(#clip0_2002_21086)">
<path d="M46.6754 25.6476C46.5762 25.4461 46.5245 25.2246 46.5245 25C46.5245 24.7754 46.5762 24.5538 46.6754 24.3524L48.5402 20.5375C49.5785 18.4134 48.7559 15.8816 46.6674 14.7735L42.9165 12.7833C42.7178 12.6787 42.5458 12.5298 42.4137 12.3481C42.2817 12.1665 42.1933 11.9569 42.1551 11.7356L41.4215 7.55308C41.013 5.22438 38.859 3.65955 36.5184 3.9907L32.3141 4.58542C32.0918 4.61755 31.8651 4.59816 31.6516 4.52876C31.438 4.45935 31.2432 4.34178 31.0823 4.18513L28.0305 1.23281C26.3312 -0.41113 23.6691 -0.411228 21.9699 1.23281L18.918 4.18542C18.757 4.34204 18.5623 4.45958 18.3487 4.52899C18.1351 4.59839 17.9085 4.6178 17.6862 4.58572L13.4819 3.99099C11.1406 3.65965 8.98726 5.22468 8.57876 7.55337L7.84518 11.7357C7.80705 11.957 7.71858 12.1666 7.58659 12.3482C7.4546 12.5299 7.28263 12.6789 7.08395 12.7835L3.33299 14.7737C1.24453 15.8817 0.421879 18.4137 1.46015 20.5378L3.32489 24.3526C3.42415 24.554 3.47577 24.7756 3.47577 25.0002C3.47577 25.2248 3.42415 25.4463 3.32489 25.6478L1.46006 29.4626C0.421781 31.5867 1.24443 34.1185 3.3329 35.2265L7.08385 37.2168C7.28255 37.3214 7.45455 37.4703 7.58655 37.652C7.71856 37.8336 7.80704 38.0432 7.84518 38.2645L8.57876 42.447C8.95064 44.5669 10.7684 46.0536 12.8575 46.0534C13.0633 46.0534 13.2721 46.039 13.482 46.0093L17.6863 45.4146C17.9086 45.3824 18.1353 45.4018 18.3488 45.4712C18.5624 45.5406 18.7572 45.6582 18.9181 45.8149L21.9699 48.7672C22.8197 49.5893 23.9097 50.0002 25.0002 50.0001C26.0903 50 27.181 49.5891 28.0304 48.7672L31.0823 45.8149C31.4116 45.4964 31.8605 45.3509 32.3141 45.4146L36.5184 46.0093C38.86 46.3405 41.013 44.7756 41.4215 42.4469L42.1552 38.2646C42.1934 38.0433 42.2818 37.8337 42.4138 37.652C42.5458 37.4704 42.7178 37.3214 42.9165 37.2168L46.6674 35.2265C48.7559 34.1185 49.5785 31.5866 48.5402 29.4625L46.6754 25.6476ZM19.2325 12.023C22.1477 12.023 24.5195 14.3947 24.5195 17.31C24.5195 20.2252 22.1477 22.5969 19.2325 22.5969C16.3173 22.5969 13.9455 20.2252 13.9455 17.31C13.9455 14.3947 16.3173 12.023 19.2325 12.023ZM16.5036 35.5355C16.2221 35.8171 15.853 35.9579 15.4841 35.9579C15.1152 35.9579 14.746 35.8172 14.4646 35.5355C13.9015 34.9724 13.9015 34.0595 14.4646 33.4964L33.4966 14.4644C34.0596 13.9013 34.9727 13.9013 35.5357 14.4644C36.0988 15.0275 36.0988 15.9404 35.5357 16.5035L16.5036 35.5355ZM30.7676 37.9771C27.8524 37.9771 25.4806 35.6054 25.4806 32.6901C25.4806 29.7749 27.8524 27.4032 30.7676 27.4032C33.6828 27.4032 36.0546 29.7749 36.0546 32.6901C36.0546 35.6054 33.6828 37.9771 30.7676 37.9771Z" fill="white"/>
<path d="M30.7678 30.287C29.4427 30.287 28.3646 31.365 28.3646 32.6901C28.3646 34.0152 29.4426 35.0932 30.7678 35.0932C32.0929 35.0932 33.1709 34.0152 33.1709 32.6901C33.1709 31.365 32.0929 30.287 30.7678 30.287ZM19.2327 14.9067C17.9076 14.9067 16.8296 15.9848 16.8296 17.3098C16.8296 18.6349 17.9076 19.7131 19.2327 19.7131C20.5578 19.7131 21.6359 18.635 21.6359 17.3098C21.6358 15.9849 20.5578 14.9067 19.2327 14.9067Z" fill="white"/>
</g>
<defs>
<clipPath id="clip0_2002_21086">
<rect width="50" height="50" fill="white"/>
</clipPath>
</defs>
</svg>
