<svg width="51" height="50" viewBox="0 0 51 50" fill="none" xmlns="http://www.w3.org/2000/svg">
<g clip-path="url(#clip0_2002_24982)">
<path fill-rule="evenodd" clip-rule="evenodd" d="M25.9998 7.85762C32.8669 7.85762 38.4338 13.4245 38.4338 20.2917C38.4338 27.1589 32.8668 32.7258 25.9998 32.7258C19.1327 32.7258 13.5657 27.1588 13.5657 20.2917C13.5657 13.4246 19.1327 7.85762 25.9998 7.85762ZM22.1135 40.422C19.8234 40.9799 17.4592 40.0552 16.1548 38.0606L14.5085 35.5432C14.2667 35.1734 13.9917 34.9194 13.6191 34.727L9.31714 43.9671C9.19536 44.2284 9.41704 44.5175 9.70103 44.4679L15.0958 43.5253L17.8472 48.2603C17.9919 48.5092 18.3561 48.4927 18.4776 48.2316L22.1135 40.422ZM29.8861 40.422L33.522 48.2316C33.6435 48.4927 34.0078 48.5091 34.1524 48.2603L36.9039 43.5253L42.2986 44.4679C42.5826 44.5175 42.8042 44.2284 42.6825 43.9671L38.3805 34.7269C38.0079 34.9193 37.7329 35.1734 37.4912 35.5431L35.8448 38.0605C34.5402 40.0552 32.1761 40.9798 29.8861 40.422ZM28.395 2.37197C26.9531 1.29268 25.0464 1.29268 23.6045 2.37197L21.1963 4.17451C20.5377 4.66748 19.8445 4.91982 19.0231 4.96553L16.0198 5.13262C14.2214 5.23262 12.7608 6.4582 12.3501 8.21182L11.664 11.1405C11.4763 11.9415 11.1076 12.5804 10.5077 13.1434L8.31431 15.202C7.00103 16.4346 6.66997 18.3122 7.48247 19.9196L8.83951 22.6042C9.2106 23.3384 9.33872 24.0649 9.24107 24.8817L8.88404 27.8686C8.67027 29.6569 9.62359 31.3082 11.2793 32.0173L14.0444 33.2016C14.8006 33.5254 15.3658 33.9996 15.816 34.6881L17.4624 37.2056C18.4482 38.7129 20.2398 39.365 21.9639 38.8439L24.8433 37.9737C25.6308 37.7357 26.3685 37.7357 27.156 37.9737L30.0354 38.8439C31.7595 39.365 33.5511 38.7129 34.537 37.2056L36.1834 34.6881C36.6336 33.9996 37.1988 33.5254 37.955 33.2016L40.7202 32.0174C42.3758 31.3083 43.3292 29.6571 43.1154 27.8687L42.7584 24.8818C42.6607 24.0649 42.7888 23.3385 43.1599 22.6043L44.5169 19.9197C45.3294 18.3123 44.9984 16.4347 43.6851 15.2021L41.4918 13.1435C40.8919 12.5805 40.5231 11.9416 40.3354 11.1406L39.6494 8.21191C39.2385 6.4583 37.778 5.23271 35.9796 5.13271L32.9763 4.96563C32.1549 4.91992 31.4617 4.66768 30.8031 4.17461L28.395 2.37197ZM27.5647 16.9354C27.6036 16.8362 27.6625 16.7462 27.7376 16.6707C28.0412 16.3669 28.37 15.8756 28.4296 15.4427V13.4201C28.4296 11.6118 26.9501 10.1329 25.1419 10.1329V12.874C25.1419 15.1515 23.0967 16.1834 21.4935 17.3873L21.4921 26.4176C23.5263 28.3658 25.4897 27.9256 28.9893 27.323C29.1179 27.3645 29.2522 27.3855 29.3873 27.3854H31.496C32.2144 27.3854 32.8022 26.7976 32.8022 26.0792C32.8022 25.3608 32.2144 24.7729 31.496 24.7729H32.2751C32.9935 24.7728 33.5813 24.1851 33.5813 23.4665C33.5813 22.748 32.9935 22.1603 32.2751 22.1603H33.1917C33.9101 22.1603 34.4979 21.5725 34.4979 20.854C34.4979 20.1355 33.9101 19.5478 33.1917 19.5478H32.6414C33.3598 19.5478 33.9476 18.96 33.9476 18.2415C33.9476 17.523 33.3597 16.9354 32.6414 16.9353L27.5647 16.9354ZM19.9292 26.4176L19.9369 17.3884H18.0123V26.4176H19.9292Z" fill="white"/>
</g>
<defs>
<clipPath id="clip0_2002_24982">
<rect width="50" height="50" fill="white" transform="translate(0.5)"/>
</clipPath>
</defs>
</svg>
