<svg width="51" height="50" viewBox="0 0 51 50" fill="none" xmlns="http://www.w3.org/2000/svg">
<g clip-path="url(#clip0_2002_2446)">
<g clip-path="url(#clip1_2002_2446)">
<path d="M28.3363 0C23.1654 0 18.4248 1.80313 14.6738 4.79375C15.4001 6.19244 16.0432 7.63279 16.5998 9.10729C19.3765 6.56421 22.9058 4.99445 26.654 4.63542V6.82292C26.654 7.36667 27.1008 7.8125 27.6446 7.8125H29.0279C29.2898 7.8114 29.5407 7.70672 29.7257 7.52132C29.9107 7.33591 30.0149 7.08484 30.0154 6.82292V4.63542C38.2842 5.42812 44.8613 12.0063 45.656 20.275H43.5654C43.3035 20.2755 43.0524 20.3797 42.867 20.5647C42.6816 20.7497 42.5769 21.0006 42.5758 21.2625V22.6479C42.5758 23.1917 43.0217 23.6365 43.5654 23.6365H45.656C45.1258 29.1542 42.0206 33.9198 37.555 36.7146C38.7979 37.6795 40.0083 38.6856 41.1842 39.7312C46.6925 35.7417 50.2894 29.276 50.2894 21.9552C50.2894 9.83021 40.4623 0 28.3363 0ZM21.0842 22.0125C20.881 22.2292 20.6258 22.4448 20.3206 22.6604C20.1488 22.775 19.8633 23.0156 19.4644 23.3802C19.0644 23.7448 18.6175 24.1833 18.1196 24.6948C18.0008 24.8208 17.8904 24.9948 17.7904 25.2156C17.6894 25.4354 17.6383 25.6125 17.6383 25.7469C17.6383 25.9542 17.7165 26.1344 17.8738 26.2896C18.031 26.4417 18.2488 26.5198 18.529 26.5198H22.6508C22.8967 26.5198 23.081 26.4562 23.2019 26.3302C23.3227 26.2042 23.3842 26.05 23.3842 25.8698C23.3875 25.7766 23.3684 25.684 23.3285 25.5997C23.2886 25.5155 23.2291 25.442 23.155 25.3854C23.0019 25.2667 22.779 25.2073 22.4873 25.2073H19.5644C19.6571 25.0667 19.7488 24.9469 19.8394 24.8448C20.0477 24.5937 20.4331 24.2396 20.9956 23.7833C21.4026 23.4571 21.8027 23.1223 22.1956 22.7792C22.4342 22.5667 22.6685 22.2719 22.8988 21.8948C23.1279 21.5187 23.2425 21.101 23.2425 20.6406C23.2425 20.349 23.1883 20.0656 23.0779 19.7938C22.8653 19.2572 22.4531 18.8237 21.9279 18.5844C21.5248 18.4062 21.0373 18.3177 20.4665 18.3177C19.9915 18.3177 19.5779 18.3865 19.2269 18.526C18.9017 18.6477 18.6045 18.8337 18.3529 19.0729C18.1309 19.2875 17.9544 19.5447 17.8342 19.8292C17.7196 20.1073 17.6613 20.374 17.6613 20.6302C17.6613 20.8417 17.7238 21.0094 17.8467 21.1302C17.9074 21.191 17.98 21.2387 18.0599 21.2704C18.1398 21.3021 18.2253 21.3172 18.3113 21.3146C18.5238 21.3146 18.6852 21.2479 18.7956 21.1146C18.9261 20.9418 19.0261 20.7481 19.0915 20.5417C19.18 20.2937 19.2425 20.1417 19.28 20.0854C19.5602 19.6583 19.9446 19.4458 20.4331 19.4458C20.6644 19.4458 20.879 19.4979 21.0738 19.601C21.2688 19.7033 21.4316 19.8578 21.5438 20.0473C21.656 20.2368 21.7133 20.4538 21.7092 20.674C21.7092 20.8927 21.656 21.1156 21.5498 21.3448C21.4305 21.5904 21.2734 21.8157 21.0842 22.0125ZM28.3831 18.2615C28.2157 18.2589 28.054 18.3217 27.9321 18.4365C27.7572 18.6116 27.5967 18.8004 27.4519 19.001L24.4842 22.9427L24.2769 23.2156C24.2211 23.2914 24.1673 23.3685 24.1154 23.4469C24.0673 23.518 24.0278 23.5946 23.9977 23.675C23.973 23.7439 23.96 23.8164 23.9592 23.8896C23.9592 24.1635 24.0477 24.3813 24.2248 24.5396C24.4029 24.699 24.6685 24.7781 25.0238 24.7781H27.8342V25.8115C27.8342 26.0917 27.8998 26.301 28.029 26.4427C28.0927 26.5127 28.1709 26.5681 28.2581 26.605C28.3453 26.6419 28.4395 26.6593 28.5342 26.6562C28.6292 26.6603 28.7241 26.6438 28.8122 26.6079C28.9003 26.5719 28.9795 26.5174 29.0446 26.4479C29.1706 26.3083 29.2342 26.0958 29.2342 25.8115V24.7781H29.5758C29.8602 24.7781 30.0738 24.7292 30.2144 24.6312C30.3571 24.5323 30.4279 24.376 30.4279 24.1615C30.4279 23.8979 30.3404 23.7281 30.1675 23.65C29.9925 23.5719 29.7623 23.5333 29.4758 23.5333H29.2342V19.2292C29.2331 18.5844 28.9508 18.2615 28.3831 18.2615ZM27.8342 23.5333H25.4269L27.8342 20.3021V23.5333ZM31.7071 26.5542C31.7915 26.4774 31.8535 26.3791 31.8863 26.2698C31.9373 26.1046 31.9832 25.9379 32.0238 25.7698L33.5925 19.3594C33.6685 19.0552 33.7092 18.8458 33.7092 18.7302C33.7124 18.662 33.7007 18.5938 33.675 18.5305C33.6493 18.4672 33.6101 18.4102 33.5602 18.3635C33.4602 18.274 33.3185 18.2292 33.131 18.2292C32.9133 18.2292 32.7685 18.2927 32.6956 18.4187C32.6206 18.5437 32.5415 18.7792 32.4592 19.1198L30.8967 25.5312C30.8217 25.8719 30.7852 26.0844 30.7852 26.1687C30.7852 26.4958 30.9748 26.6594 31.355 26.6594C31.5102 26.6583 31.6248 26.624 31.7071 26.5542ZM36.5654 23.2906C36.3687 23.7677 36.2038 24.2574 36.0717 24.7563C35.9717 25.1635 35.9196 25.4865 35.9196 25.724C35.9196 26.0312 35.9883 26.2646 36.1248 26.4208C36.193 26.4986 36.2776 26.5603 36.3725 26.6014C36.4675 26.6424 36.5704 26.6619 36.6738 26.6583C36.9133 26.6583 37.105 26.5854 37.2498 26.4396C37.3925 26.2917 37.504 26.0292 37.581 25.651C37.6154 25.4885 37.654 25.2531 37.6988 24.9458C37.7435 24.6375 37.7842 24.3875 37.8227 24.1937C37.8731 23.9479 37.9364 23.7049 38.0123 23.4656C38.2258 22.8021 38.4602 22.2406 38.7165 21.7812C38.9727 21.3229 39.2185 20.9365 39.4592 20.6281C39.7008 20.3177 39.9154 20.0365 40.104 19.7802C40.2935 19.524 40.3863 19.3187 40.3863 19.1635C40.3863 18.9073 40.3071 18.7229 40.1467 18.6125C39.9863 18.5021 39.7258 18.4458 39.3675 18.4458H35.6383C35.3435 18.4458 35.1133 18.4833 34.9508 18.5562C34.7863 18.6312 34.7029 18.7948 34.7029 19.0521C34.7029 19.2927 34.7821 19.4698 34.9383 19.5844C35.0915 19.6958 35.3269 19.7531 35.6404 19.7531H38.6373C38.1685 20.3458 37.7602 20.9427 37.4185 21.5406C37.0769 22.1385 36.7904 22.7219 36.5654 23.2906ZM29.4467 34.6969C28.5196 35.0104 27.8967 36.5427 27.004 37.7469C26.4102 38.551 24.879 38.6948 23.3456 37.9417C20.1529 36.3687 11.1081 23.8833 10.9529 21.5937C10.8175 19.5969 13.0238 18.0698 13.0238 18.0698C13.0238 18.0698 16.1623 16.8865 16.3883 16.2021C16.7029 15.2521 13.1456 4.13437 10.5123 2.50833C10.5123 2.50833 8.51125 2.54792 6.42792 4.43125C4.34355 6.31458 1.73313 9.68958 1.70813 12.6906C1.67896 16.3646 6.94563 27.3969 11.7435 33.3083C17.2227 40.0625 25.8852 47.8333 29.581 49.4896C33.479 51.2396 38.7175 48.0208 39.5727 46.8427C40.431 45.6646 42.2352 43.7469 41.6185 42.9583C40.9998 42.1688 31.6602 33.9469 29.4467 34.6969Z" fill="white"/>
</g>
</g>
<defs>
<clipPath id="clip0_2002_2446">
<rect width="50" height="50" fill="white" transform="translate(0.5)"/>
</clipPath>
<clipPath id="clip1_2002_2446">
<rect width="50" height="50" fill="white" transform="translate(1)"/>
</clipPath>
</defs>
</svg>
