<svg width="47" height="48" viewBox="0 0 47 48" fill="none" xmlns="http://www.w3.org/2000/svg">
<path d="M45.3264 24C45.3264 23.3281 45.6858 22.4375 46.0295 21.5625C46.6233 20.0938 47.2952 18.4219 46.717 16.7344C46.1389 15.0156 44.5452 14.0313 43.1545 13.1563C42.3577 12.6719 41.5295 12.1563 41.1389 11.6563C40.7483 11.1406 40.4983 10.2656 40.2483 9.34375C39.8108 7.8125 39.3264 6.0625 37.8264 5.01562C36.3577 4 34.5139 4.09375 32.8733 4.17188C31.9045 4.21875 30.9045 4.26562 30.2327 4.04688C29.6077 3.85938 28.8889 3.29688 28.1389 2.71875C26.8436 1.70313 25.3749 0.5625 23.4999 0.5625C21.6249 0.5625 20.1561 1.70313 18.8592 2.71875C18.1092 3.29688 17.3905 3.85938 16.7655 4.04688C16.0936 4.26562 15.0936 4.21875 14.1249 4.17188C12.4842 4.09375 10.6405 4 9.17173 5.01562C7.67173 6.0625 7.18736 7.8125 6.74986 9.34375C6.49986 10.2656 6.24986 11.1406 5.85923 11.6563C5.46861 12.1563 4.64048 12.6719 3.85923 13.1563C2.45298 14.0313 0.859231 15.0156 0.281106 16.7344C-0.297019 18.4219 0.374856 20.0938 0.968606 21.5625C1.31236 22.4375 1.67173 23.3281 1.67173 24C1.67173 24.6719 1.31236 25.5625 0.968606 26.4375C0.374856 27.9062 -0.297019 29.5781 0.281106 31.2656C0.859231 32.9844 2.45298 33.9688 3.84361 34.8438C4.64048 35.3281 5.46861 35.8438 5.85923 36.3438C6.24986 36.8594 6.49986 37.7344 6.74986 38.6562C7.18736 40.1875 7.67173 41.9375 9.17173 42.9844C10.6405 44 12.4842 43.9062 14.1249 43.8281C15.0936 43.7812 16.0936 43.7344 16.7655 43.9531C17.3905 44.1406 18.1092 44.7031 18.8592 45.2812C20.1561 46.2969 21.6249 47.4375 23.4999 47.4375C25.3749 47.4375 26.8436 46.2969 28.1405 45.2812C28.8905 44.7031 29.6092 44.1406 30.2342 43.9531C30.9061 43.7344 31.9061 43.7812 32.8749 43.8281C34.5155 43.9062 36.3592 44 37.828 42.9844C39.328 41.9375 39.8124 40.1875 40.2499 38.6562C40.4999 37.7344 40.7499 36.8594 41.1405 36.3438C41.5311 35.8438 42.3592 35.3281 43.1405 34.8438C44.5467 33.9688 46.1405 32.9844 46.7186 31.2656C47.2967 29.5781 46.6249 27.9062 46.0311 26.4375C45.6858 25.5625 45.3264 24.6719 45.3264 24ZM17.2499 28.6875C17.2499 29.375 16.7967 29.9844 16.1405 30.1875C15.9842 30.2344 15.8436 30.25 15.6874 30.25C15.1717 30.25 14.6874 30 14.3905 29.5469L10.9999 24.4687V28.6875C10.9999 29.5469 10.2967 30.25 9.43736 30.25C8.57798 30.25 7.87486 29.5469 7.87486 28.6875V19.3125C7.87486 18.625 8.32798 18.0156 8.98423 17.8125C9.64048 17.6094 10.3592 17.875 10.7342 18.4531L14.1249 23.5312V19.3125C14.1249 18.4531 14.828 17.75 15.6874 17.75C16.5467 17.75 17.2499 18.4531 17.2499 19.3125V28.6875ZM25.0624 22.4375C25.9217 22.4375 26.6249 23.1406 26.6249 24C26.6249 24.8594 25.9217 25.5625 25.0624 25.5625H21.9374V27.125H25.0624C25.9217 27.125 26.6249 27.8281 26.6249 28.6875C26.6249 29.5469 25.9217 30.25 25.0624 30.25H20.3749C19.5155 30.25 18.8124 29.5469 18.8124 28.6875V19.3125C18.8124 18.4531 19.5155 17.75 20.3749 17.75H25.0624C25.9217 17.75 26.6249 18.4531 26.6249 19.3125C26.6249 20.1719 25.9217 20.875 25.0624 20.875H21.9374V22.4375H25.0624ZM37.5452 28.9375C37.4202 29.6406 36.8577 30.1719 36.1545 30.25H35.9983C35.3577 30.25 34.7639 29.8438 34.5295 29.2344L33.6545 26.8906L32.7795 29.2344C32.5295 29.9062 31.8577 30.3125 31.1545 30.25C30.4514 30.1719 29.8889 29.6406 29.7639 28.9375L28.2014 19.5625C28.1563 19.162 28.267 18.7595 28.5106 18.4384C28.7543 18.1174 29.1121 17.9024 29.51 17.8381C29.9079 17.7738 30.3152 17.8651 30.6476 18.093C30.98 18.321 31.2119 18.6682 31.2952 19.0625L31.8889 22.6875L32.1858 21.8906C32.4202 21.2812 32.9983 20.875 33.6545 20.875C34.3108 20.875 34.8889 21.2812 35.1233 21.8906L35.4202 22.6875L36.0139 19.0625C36.0972 18.6682 36.3291 18.321 36.6615 18.093C36.9938 17.8651 37.4012 17.7738 37.7991 17.8381C38.197 17.9024 38.5548 18.1174 38.7985 18.4384C39.0421 18.7595 39.1528 19.162 39.1077 19.5625L37.5452 28.9375Z" fill="white"/>
</svg>
