<svg width="70" height="50" viewBox="0 0 70 50" fill="none" xmlns="http://www.w3.org/2000/svg">
<mask id="mask0_0_551" style="mask-type:alpha" maskUnits="userSpaceOnUse" x="10" y="0" width="46" height="37">
<mask id="path-1-inside-1_0_551" fill="white">
<path fill-rule="evenodd" clip-rule="evenodd" d="M51.1896 36.5671C53.8935 32.7626 55.4902 28.0685 55.4902 22.9898C55.4902 10.2929 45.5107 0 33.2004 0C20.8901 0 10.9106 10.2929 10.9106 22.9898C10.9106 25.215 11.2172 27.3665 11.7891 29.4016L51.1896 36.5671Z"/>
</mask>
<path fill-rule="evenodd" clip-rule="evenodd" d="M51.1896 36.5671C53.8935 32.7626 55.4902 28.0685 55.4902 22.9898C55.4902 10.2929 45.5107 0 33.2004 0C20.8901 0 10.9106 10.2929 10.9106 22.9898C10.9106 25.215 11.2172 27.3665 11.7891 29.4016L51.1896 36.5671Z" fill="black"/>
<path d="M51.1896 36.5671L50.8914 38.2069L51.9342 38.3965L52.5482 37.5326L51.1896 36.5671ZM11.7891 29.4016L10.1845 29.8524L10.4663 30.855L11.4908 31.0413L11.7891 29.4016ZM53.8235 22.9898C53.8235 27.7149 52.339 32.0729 49.8311 35.6016L52.5482 37.5326C55.448 33.4523 57.1569 28.4221 57.1569 22.9898H53.8235ZM33.2004 1.66667C44.542 1.66667 53.8235 11.1644 53.8235 22.9898H57.1569C57.1569 9.42135 46.4794 -1.66667 33.2004 -1.66667V1.66667ZM12.5773 22.9898C12.5773 11.1644 21.8588 1.66667 33.2004 1.66667V-1.66667C19.9214 -1.66667 9.24398 9.42135 9.24398 22.9898H12.5773ZM13.3936 28.9507C12.8626 27.0612 12.5773 25.0614 12.5773 22.9898H9.24398C9.24398 25.3687 9.57174 27.6717 10.1845 29.8524L13.3936 28.9507ZM11.4908 31.0413L50.8914 38.2069L51.4879 34.9274L12.0873 27.7618L11.4908 31.0413Z" fill="black" mask="url(#path-1-inside-1_0_551)"/>
</mask>
<g mask="url(#mask0_0_551)">
<path fill-rule="evenodd" clip-rule="evenodd" d="M44.6262 33.4865C46.3053 32.694 47.0436 30.6477 46.2752 28.9159C45.5069 27.184 43.5228 26.4225 41.8437 27.215C40.747 27.7326 40.0516 28.7852 39.9153 29.9357C39.7594 29.9824 39.6048 30.0415 39.4527 30.1132C37.7736 30.9057 37.0353 32.9521 37.8036 34.6839C38.572 36.4157 40.556 37.1772 42.2351 36.3848C43.3319 35.8671 44.0273 34.8145 44.1635 33.664C44.3195 33.6173 44.4741 33.5583 44.6262 33.4865Z" fill="#462D80"/>
<path fill-rule="evenodd" clip-rule="evenodd" d="M40.017 30.025L39.9464 30.0461C39.7957 30.0913 39.6462 30.1483 39.4991 30.2178C37.8759 30.9838 37.1622 32.962 37.905 34.6361C38.6477 36.3102 40.5656 37.0463 42.1887 36.2802C43.2488 35.7799 43.9211 34.7626 44.0529 33.6501L44.0618 33.5748L44.1325 33.5536C44.2832 33.5085 44.4327 33.4514 44.5798 33.382C46.2029 32.6159 46.9166 30.6378 46.1739 28.9637C45.4312 27.2896 43.5132 26.5535 41.8901 27.3195C40.83 27.8198 40.1577 28.8372 40.0259 29.9497L40.017 30.025ZM46.2752 28.9159C47.0436 30.6477 46.3053 32.694 44.6262 33.4865C44.4741 33.5583 44.3195 33.6173 44.1635 33.664C44.0273 34.8145 43.3319 35.8671 42.2351 36.3848C40.556 37.1772 38.572 36.4157 37.8036 34.6839C37.0353 32.9521 37.7736 30.9057 39.4527 30.1132C39.6048 30.0415 39.7594 29.9824 39.9153 29.9357C40.0516 28.7852 40.747 27.7326 41.8437 27.215C43.5228 26.4225 45.5069 27.184 46.2752 28.9159Z" fill="white"/>
<path d="M42.1217 35.301C42.89 37.0328 42.1517 39.0791 40.4726 39.8716C38.7935 40.6641 36.8095 39.9026 36.0411 38.1707C35.2728 36.4389 36.0111 34.3926 37.6902 33.6001C39.3693 32.8076 41.3533 33.5691 42.1217 35.301Z" fill="#462D80"/>
<path fill-rule="evenodd" clip-rule="evenodd" d="M40.4262 39.7671C42.0494 39.001 42.7631 37.0229 42.0203 35.3488C41.2776 33.6747 39.3597 32.9386 37.7366 33.7046C36.1134 34.4707 35.3997 36.4488 36.1425 38.1229C36.8852 39.797 38.8031 40.5331 40.4262 39.7671ZM40.4726 39.8716C42.1517 39.0791 42.89 37.0328 42.1217 35.301C41.3533 33.5691 39.3693 32.8076 37.6902 33.6001C36.0111 34.3926 35.2728 36.4389 36.0411 38.1707C36.8095 39.9026 38.7935 40.6641 40.4726 39.8716Z" fill="white"/>
<path d="M45.9322 31.0763C46.7006 32.8082 45.9622 34.8545 44.2831 35.647C42.604 36.4395 40.62 35.678 39.8517 33.9461C39.0833 32.2143 39.8216 30.168 41.5007 29.3755C43.1798 28.583 45.1639 29.3445 45.9322 31.0763Z" fill="#462D80"/>
<path fill-rule="evenodd" clip-rule="evenodd" d="M44.2368 35.5425C45.8599 34.7764 46.5736 32.7983 45.8309 31.1242C45.0881 29.4501 43.1702 28.7139 41.5471 29.48C39.924 30.2461 39.2103 32.2242 39.953 33.8983C40.6957 35.5724 42.6136 36.3085 44.2368 35.5425ZM44.2831 35.647C45.9622 34.8545 46.7006 32.8082 45.9322 31.0763C45.1639 29.3445 43.1798 28.583 41.5007 29.3755C39.8216 30.168 39.0833 32.2143 39.8517 33.9461C40.62 35.678 42.604 36.4395 44.2831 35.647Z" fill="white"/>
<path fill-rule="evenodd" clip-rule="evenodd" d="M48.3155 33.5152C49.9946 32.7227 50.7329 30.6764 49.9646 28.9445C49.1962 27.2127 47.2122 26.4512 45.5331 27.2437C43.9983 27.968 43.2495 29.74 43.719 31.3619C43.1026 31.2685 42.4538 31.3516 41.8452 31.6389C40.1661 32.4313 39.4278 34.4777 40.1961 36.2095C40.9645 37.9414 42.9485 38.7029 44.6276 37.9104C46.1624 37.186 46.9112 35.414 46.4417 33.7922C47.0581 33.8855 47.7068 33.8024 48.3155 33.5152Z" fill="#462D80"/>
<path fill-rule="evenodd" clip-rule="evenodd" d="M43.8758 31.5018L43.7028 31.4756C43.107 31.3854 42.4801 31.4656 41.8916 31.7434C40.2684 32.5095 39.5547 34.4876 40.2975 36.1617C41.0402 37.8358 42.9581 38.5719 44.5812 37.8059C46.0648 37.1057 46.7887 35.3927 46.3349 33.8251L46.2849 33.6523L46.4579 33.6785C47.0537 33.7687 47.6806 33.6884 48.2691 33.4107C49.8923 32.6446 50.606 30.6665 49.8632 28.9924C49.1205 27.3182 47.2026 26.5821 45.5795 27.3482C44.0959 28.0484 43.372 29.7613 43.8258 31.329L43.8758 31.5018ZM46.5623 33.8081C47.1423 33.8739 47.7464 33.7838 48.3155 33.5152C49.9946 32.7227 50.7329 30.6764 49.9646 28.9445C49.1962 27.2127 47.2122 26.4512 45.5331 27.2437C44.0363 27.9501 43.2871 29.6529 43.6863 31.2411C43.6965 31.2814 43.7073 31.3217 43.719 31.3619C43.6789 31.3558 43.6387 31.3505 43.5984 31.3459C43.0184 31.2802 42.4143 31.3703 41.8452 31.6389C40.1661 32.4313 39.4278 34.4777 40.1961 36.2095C40.9645 37.9414 42.9485 38.7029 44.6276 37.9104C46.1244 37.204 46.8736 35.5011 46.4744 33.9129C46.4642 33.8726 46.4534 33.8324 46.4417 33.7922C46.4818 33.7983 46.522 33.8036 46.5623 33.8081Z" fill="white"/>
<path fill-rule="evenodd" clip-rule="evenodd" d="M58.138 29.3929C59.9111 29.9249 61.7665 28.8736 62.2823 27.0449C62.7981 25.2161 61.7788 23.3024 60.0058 22.7705C58.8476 22.423 57.6543 22.751 56.8222 23.53C56.6746 23.4602 56.5201 23.4007 56.3596 23.3525C54.5865 22.8206 52.7311 23.8718 52.2153 25.7005C51.6995 27.5293 52.7188 29.443 54.4918 29.9749C55.65 30.3224 56.8433 29.9944 57.6754 29.2154C57.823 29.2852 57.9774 29.3447 58.138 29.3929Z" fill="#462D80"/>
<path fill-rule="evenodd" clip-rule="evenodd" d="M56.8426 23.6661L56.7758 23.6345C56.6331 23.567 56.4838 23.5095 56.3284 23.4629C54.6145 22.9487 52.8209 23.9649 52.3223 25.7326C51.8237 27.5004 52.809 29.3503 54.523 29.8646C55.6424 30.2004 56.7958 29.8836 57.6005 29.1303L57.6549 29.0794L57.7218 29.1109C57.8645 29.1784 58.0138 29.2359 58.1692 29.2825C59.8831 29.7968 61.6767 28.7806 62.1753 27.0128C62.6738 25.245 61.6886 23.3951 59.9746 22.8808C58.8552 22.545 57.7017 22.8619 56.8971 23.6151L56.8426 23.6661ZM62.2823 27.0449C61.7665 28.8736 59.9111 29.9249 58.138 29.3929C57.9774 29.3447 57.823 29.2852 57.6754 29.2154C56.8433 29.9944 55.65 30.3224 54.4918 29.9749C52.7188 29.443 51.6995 27.5293 52.2153 25.7005C52.7311 23.8718 54.5865 22.8206 56.3596 23.3525C56.5201 23.4007 56.6746 23.4602 56.8222 23.53C57.6543 22.751 58.8476 22.423 60.0058 22.7705C61.7788 23.3024 62.7981 25.2161 62.2823 27.0449Z" fill="white"/>
<path d="M55.0929 29.0783C54.5771 30.907 52.7217 31.9583 50.9486 31.4263C49.1756 30.8943 48.1563 28.9806 48.6721 27.1519C49.1879 25.3231 51.0433 24.2719 52.8164 24.8039C54.5894 25.3358 55.6086 27.2495 55.0929 29.0783Z" fill="#462D80"/>
<path fill-rule="evenodd" clip-rule="evenodd" d="M50.9798 31.3159C52.6937 31.8301 54.4873 30.8139 54.9859 29.0462C55.4844 27.2784 54.4992 25.4285 52.7852 24.9142C51.0713 24.4 49.2777 25.4162 48.7791 27.184C48.2805 28.9518 49.2658 30.8017 50.9798 31.3159ZM50.9486 31.4263C52.7217 31.9583 54.5771 30.907 55.0929 29.0783C55.6086 27.2495 54.5894 25.3358 52.8164 24.8039C51.0433 24.2719 49.1879 25.3231 48.6721 27.1519C48.1563 28.9806 49.1756 30.8943 50.9486 31.4263Z" fill="white"/>
<path d="M60.6539 28.4489C60.1382 30.2776 58.2827 31.3289 56.5097 30.7969C54.7366 30.2649 53.7174 28.3512 54.2331 26.5225C54.7489 24.6937 56.6043 23.6425 58.3774 24.1745C60.1504 24.7064 61.1697 26.6201 60.6539 28.4489Z" fill="#462D80"/>
<path fill-rule="evenodd" clip-rule="evenodd" d="M56.5408 30.6865C58.2547 31.2008 60.0483 30.1845 60.5469 28.4168C61.0455 26.649 60.0602 24.7991 58.3463 24.2848C56.6323 23.7706 54.8387 24.7868 54.3401 26.5546C53.8416 28.3224 54.8268 30.1723 56.5408 30.6865ZM56.5097 30.7969C58.2827 31.3289 60.1382 30.2776 60.6539 28.4489C61.1697 26.6201 60.1504 24.7064 58.3774 24.1745C56.6043 23.6425 54.7489 24.6937 54.2331 26.5225C53.7174 28.3512 54.7366 30.2649 56.5097 30.7969Z" fill="white"/>
<path fill-rule="evenodd" clip-rule="evenodd" d="M60.9127 31.9017C62.6858 32.4337 64.5412 31.3824 65.057 29.5537C65.5728 27.725 64.5535 25.8112 62.7805 25.2793C61.1598 24.793 59.4703 25.6296 58.798 27.1736C58.3905 26.6875 57.8469 26.3131 57.2042 26.1202C55.4311 25.5883 53.5756 26.6395 53.0599 28.4683C52.5441 30.297 53.5634 32.2107 55.3364 32.7427C56.9571 33.2289 58.6466 32.3924 59.3189 30.8484C59.7263 31.3345 60.27 31.7089 60.9127 31.9017Z" fill="#462D80"/>
<path fill-rule="evenodd" clip-rule="evenodd" d="M58.828 27.3852L58.7136 27.2487C58.3199 26.7789 57.7945 26.4171 57.173 26.2306C55.4591 25.7164 53.6655 26.7326 53.1669 28.5004C52.6683 30.2682 53.6536 32.1181 55.3676 32.6323C56.9341 33.1023 58.5674 32.2937 59.2173 30.8013L59.2889 30.6368L59.4033 30.7732C59.797 31.243 60.3224 31.6049 60.9439 31.7914C62.6578 32.3056 64.4514 31.2894 64.95 29.5216C65.4486 27.7538 64.4633 25.9039 62.7493 25.3897C61.1828 24.9197 59.5495 25.7282 58.8996 27.2207L58.828 27.3852ZM59.4001 30.9417C59.7974 31.3824 60.3118 31.7214 60.9127 31.9017C62.6858 32.4337 64.5412 31.3824 65.057 29.5537C65.5728 27.725 64.5535 25.8112 62.7805 25.2793C61.1999 24.8051 59.5539 25.589 58.8498 27.0602C58.8319 27.0975 58.8146 27.1353 58.798 27.1736C58.7715 27.142 58.7444 27.1109 58.7168 27.0802C58.3195 26.6396 57.8051 26.3005 57.2042 26.1202C55.4311 25.5883 53.5756 26.6395 53.0599 28.4683C52.5441 30.297 53.5634 32.2107 55.3364 32.7427C56.917 33.2169 58.563 32.433 59.2671 30.9618C59.285 30.9244 59.3023 30.8866 59.3189 30.8484C59.3454 30.88 59.3725 30.9111 59.4001 30.9417Z" fill="white"/>
<path d="M54.6396 28.148C53.7911 27.0049 52.4039 26.3298 50.9136 26.4881C49.4233 26.6465 48.1987 27.5992 47.594 28.8967C47.3925 28.8876 47.1878 28.8935 46.9812 28.9155C45.1292 29.1123 43.6874 30.5358 43.3359 32.3234C41.1715 32.6757 39.6284 34.7179 39.8557 36.993C40.0908 39.3461 42.1309 41.0572 44.4124 40.8148C45.504 40.6988 46.4531 40.1566 47.1204 39.3648C47.9302 39.9996 48.9666 40.3308 50.0582 40.2148C52.1436 39.9932 53.7089 38.2161 53.7831 36.1152C54.4722 36.4782 55.2675 36.647 56.0945 36.5591C58.3761 36.3167 60.0351 34.2125 59.8 31.8594C59.5649 29.5062 57.5248 27.7951 55.2433 28.0375C55.0367 28.0595 54.8351 28.0967 54.6396 28.148Z" fill="#8C5AFF"/>
<path fill-rule="evenodd" clip-rule="evenodd" d="M54.5958 28.2781L54.5511 28.2179C53.7252 27.1052 52.3752 26.4484 50.925 26.6025C49.4749 26.7566 48.2831 27.6835 47.6944 28.9465L47.6626 29.0149L47.5891 29.0116C47.393 29.0027 47.1938 29.0085 46.9926 29.0299C45.1905 29.2214 43.7872 30.6065 43.4451 32.3463L43.4297 32.4245L43.3532 32.437C41.247 32.7798 39.7454 34.7673 39.9666 36.9812C40.1953 39.2712 42.1807 40.9364 44.401 40.7004C45.4633 40.5875 46.3868 40.06 47.0363 39.2894L47.1048 39.2082L47.1878 39.2733C47.976 39.8911 48.9844 40.2134 50.0468 40.1005C52.0761 39.8848 53.5996 38.1554 53.6717 36.111L53.678 35.9308L53.8338 36.0128C54.5043 36.3661 55.2781 36.5303 56.0831 36.4448C58.3034 36.2089 59.9179 34.1612 59.6891 31.8711C59.4604 29.5811 57.475 27.9159 55.2547 28.1519C55.0535 28.1733 54.8573 28.2095 54.6671 28.2594L54.5958 28.2781ZM53.7768 36.2406C53.7795 36.1989 53.7816 36.1571 53.7831 36.1152C53.8192 36.1342 53.8556 36.1527 53.8923 36.1707C54.5557 36.4952 55.3109 36.6424 56.0945 36.5591C58.3761 36.3167 60.0351 34.2125 59.8 31.8594C59.5649 29.5062 57.5248 27.7951 55.2433 28.0375C55.0367 28.0595 54.8351 28.0967 54.6396 28.148C53.7911 27.0049 52.4039 26.3298 50.9136 26.4881C49.4233 26.6465 48.1987 27.5992 47.594 28.8967C47.3925 28.8876 47.1878 28.8935 46.9812 28.9155C45.1292 29.1123 43.6874 30.5358 43.3359 32.3234C41.1715 32.6757 39.6284 34.7179 39.8557 36.993C40.0908 39.3461 42.1309 41.0572 44.4124 40.8148C45.504 40.6988 46.4531 40.1566 47.1204 39.3648C47.9302 39.9996 48.9666 40.3308 50.0582 40.2148C52.102 39.9976 53.6462 38.2865 53.7768 36.2406Z" fill="white"/>
<path fill-rule="evenodd" clip-rule="evenodd" d="M20.5789 30.1613C19.0587 29.0802 18.676 26.9327 19.7242 25.3647C20.7724 23.7968 22.8545 23.4021 24.3747 24.4832C25.3677 25.1894 25.8753 26.3505 25.8159 27.5079C25.9616 27.5818 26.1039 27.6677 26.2416 27.7656C27.7618 28.8467 28.1445 30.9942 27.0963 32.5621C26.0481 34.1301 23.966 34.5247 22.4458 33.4436C21.4528 32.7375 20.9452 31.5763 21.0046 30.4189C20.8589 30.345 20.7166 30.2592 20.5789 30.1613Z" fill="#462D80"/>
<path fill-rule="evenodd" clip-rule="evenodd" d="M25.7007 27.5776L25.7667 27.6111C25.9076 27.6825 26.0452 27.7655 26.1783 27.8602C27.6479 28.9053 28.0178 30.9812 27.0045 32.4969C25.9913 34.0125 23.9786 34.3941 22.5091 33.349C21.5493 32.6665 21.0584 31.5442 21.1159 30.425L21.1198 30.3493L21.0538 30.3158C20.913 30.2443 20.7754 30.1613 20.6422 30.0666C19.1726 29.0216 18.8027 26.9457 19.816 25.43C20.8292 23.9143 22.8419 23.5328 24.3114 24.5778C25.2712 25.2604 25.7621 26.3826 25.7046 27.5018L25.7007 27.5776ZM19.7242 25.3647C18.676 26.9327 19.0587 29.0802 20.5789 30.1613C20.7166 30.2592 20.8589 30.345 21.0046 30.4189C20.9452 31.5763 21.4528 32.7375 22.4458 33.4436C23.966 34.5247 26.0481 34.1301 27.0963 32.5621C28.1445 30.9942 27.7618 28.8467 26.2416 27.7656C26.1039 27.6677 25.9616 27.5818 25.8159 27.5079C25.8753 26.3505 25.3677 25.1894 24.3747 24.4832C22.8545 23.4021 20.7724 23.7968 19.7242 25.3647Z" fill="white"/>
<path d="M22.7405 32.396C21.6923 33.9639 22.075 36.1114 23.5952 37.1925C25.1154 38.2736 27.1975 37.8789 28.2457 36.311C29.2938 34.743 28.9112 32.5955 27.391 31.5144C25.8708 30.4333 23.7887 30.828 22.7405 32.396Z" fill="#462D80"/>
<path fill-rule="evenodd" clip-rule="evenodd" d="M23.6584 37.0979C22.1889 36.0528 21.819 33.9769 22.8322 32.4612C23.8455 30.9455 25.8582 30.564 27.3277 31.6091C28.7972 32.6541 29.1671 34.73 28.1539 36.2457C27.1407 37.7614 25.128 38.1429 23.6584 37.0979ZM23.5952 37.1925C22.075 36.1114 21.6923 33.9639 22.7405 32.396C23.7887 30.828 25.8708 30.4333 27.391 31.5144C28.9112 32.5955 29.2938 34.743 28.2457 36.311C27.1975 37.8789 25.1154 38.2736 23.5952 37.1925Z" fill="white"/>
<path d="M19.6985 27.5537C18.6503 29.1216 19.033 31.2691 20.5532 32.3502C22.0734 33.4313 24.1555 33.0366 25.2037 31.4687C26.2518 29.9007 25.8692 27.7532 24.349 26.6721C22.8288 25.591 20.7467 25.9857 19.6985 27.5537Z" fill="#462D80"/>
<path fill-rule="evenodd" clip-rule="evenodd" d="M20.6164 32.2556C19.1469 31.2105 18.777 29.1346 19.7902 27.6189C20.8035 26.1032 22.8162 25.7217 24.2857 26.7668C25.7552 27.8118 26.1252 29.8877 25.1119 31.4034C24.0987 32.9191 22.086 33.3006 20.6164 32.2556ZM20.5532 32.3502C19.033 31.2691 18.6503 29.1216 19.6985 27.5537C20.7467 25.9857 22.8288 25.591 24.349 26.6721C25.8692 27.7532 26.2518 29.9007 25.2037 31.4687C24.1555 33.0366 22.0734 33.4313 20.5532 32.3502Z" fill="white"/>
<path fill-rule="evenodd" clip-rule="evenodd" d="M16.9405 29.5284C15.4202 28.4473 15.0376 26.2998 16.0858 24.7319C17.1339 23.1639 19.216 22.7692 20.7362 23.8503C22.1258 24.8385 22.5649 26.7177 21.8297 28.2308C22.4524 28.2493 23.0773 28.4473 23.6284 28.8391C25.1486 29.9202 25.5312 32.0677 24.483 33.6357C23.4349 35.2036 21.3528 35.5983 19.8326 34.5172C18.443 33.529 18.0039 31.6499 18.7391 30.1367C18.1164 30.1183 17.4915 29.9203 16.9405 29.5284Z" fill="#462D80"/>
<path fill-rule="evenodd" clip-rule="evenodd" d="M21.6517 28.3405L21.8265 28.3457C22.4283 28.3636 23.0323 28.5549 23.5651 28.9338C25.0346 29.9788 25.4045 32.0547 24.3913 33.5704C23.3781 35.0861 21.3654 35.4676 19.8958 34.4226C18.5526 33.4674 18.1281 31.6508 18.8388 30.1882L18.9171 30.027L18.7424 30.0218C18.1405 30.004 17.5366 29.8127 17.0037 29.4338C15.5342 28.3887 15.1643 26.3128 16.1775 24.7971C17.1908 23.2814 19.2034 22.8999 20.673 23.945C22.0162 24.9002 22.4408 26.7167 21.73 28.1793L21.6517 28.3405ZM18.6177 30.1308C18.0355 30.0917 17.4557 29.8948 16.9405 29.5284C15.4202 28.4473 15.0376 26.2998 16.0858 24.7319C17.1339 23.1639 19.216 22.7692 20.7362 23.8503C22.0914 24.814 22.5426 26.6251 21.8821 28.1177C21.8654 28.1557 21.8479 28.1934 21.8297 28.2308C21.8701 28.232 21.9106 28.234 21.9511 28.2367C22.5333 28.2758 23.1131 28.4727 23.6284 28.8391C25.1486 29.9202 25.5312 32.0677 24.483 33.6357C23.4349 35.2036 21.3528 35.5983 19.8326 34.5172C18.4774 33.5535 18.0262 31.7424 18.6867 30.2498C18.7034 30.2119 18.7209 30.1742 18.7391 30.1367C18.6987 30.1355 18.6582 30.1336 18.6177 30.1308Z" fill="white"/>
<path fill-rule="evenodd" clip-rule="evenodd" d="M7.96189 23.7106C6.12622 23.917 4.47589 22.5495 4.27578 20.6562C4.07567 18.7628 5.40155 17.0607 7.23722 16.8543C8.43625 16.7195 9.55622 17.2562 10.2446 18.1723C10.4017 18.13 10.5638 18.0991 10.7301 18.0804C12.5658 17.874 14.2161 19.2415 14.4162 21.1348C14.6163 23.0281 13.2904 24.7303 11.4548 24.9367C10.2557 25.0715 9.13575 24.5348 8.44737 23.6187C8.29023 23.6609 8.12815 23.6919 7.96189 23.7106Z" fill="#462D80"/>
<path fill-rule="evenodd" clip-rule="evenodd" d="M10.2016 18.3027L10.2727 18.2835C10.4246 18.2427 10.5813 18.2127 10.7422 18.1947C12.5166 17.9951 14.112 19.3171 14.3054 21.1473C14.4988 22.9775 13.2172 24.6229 11.4427 24.8224C10.2837 24.9527 9.20111 24.4341 8.53546 23.5483L8.49041 23.4883L8.41925 23.5074C8.26736 23.5483 8.11064 23.5782 7.94981 23.5963C6.17533 23.7958 4.58001 22.4739 4.38657 20.6437C4.19313 18.8135 5.47481 17.1681 7.24929 16.9686C8.40824 16.8383 9.49086 17.3568 10.1565 18.2427L10.2016 18.3027ZM4.27578 20.6562C4.47589 22.5495 6.12622 23.917 7.96189 23.7106C8.12815 23.6919 8.29023 23.6609 8.44737 23.6187C9.13575 24.5348 10.2557 25.0715 11.4548 24.9367C13.2904 24.7303 14.6163 23.0281 14.4162 21.1348C14.2161 19.2415 12.5658 17.874 10.7301 18.0804C10.5638 18.0991 10.4017 18.13 10.2446 18.1723C9.55622 17.2562 8.43625 16.7195 7.23722 16.8543C5.40155 17.0607 4.07567 18.7628 4.27578 20.6562Z" fill="white"/>
<path d="M11.0141 23.945C11.2142 25.8384 12.8645 27.2059 14.7002 26.9995C16.5359 26.7931 17.8618 25.0909 17.6617 23.1976C17.4615 21.3043 15.8112 19.9368 13.9755 20.1432C12.1399 20.3496 10.814 22.0517 11.0141 23.945Z" fill="#462D80"/>
<path fill-rule="evenodd" clip-rule="evenodd" d="M14.6881 26.8852C12.9137 27.0847 11.3183 25.7628 11.1249 23.9326C10.9315 22.1024 12.2131 20.457 13.9876 20.2574C15.7621 20.0579 17.3574 21.3799 17.5509 23.2101C17.7443 25.0403 16.4626 26.6857 14.6881 26.8852ZM14.7002 26.9995C12.8645 27.2059 11.2142 25.8384 11.0141 23.945C10.814 22.0517 12.1399 20.3496 13.9755 20.1432C15.8112 19.9368 17.4615 21.3043 17.6617 23.1976C17.8618 25.0909 16.5359 26.7931 14.7002 26.9995Z" fill="white"/>
<path d="M5.6435 22.3298C5.84361 24.2231 7.49394 25.5906 9.32961 25.3842C11.1653 25.1778 12.4912 23.4757 12.291 21.5824C12.0909 19.6891 10.4406 18.3215 8.60494 18.5279C6.76927 18.7343 5.44339 20.4365 5.6435 22.3298Z" fill="#462D80"/>
<path fill-rule="evenodd" clip-rule="evenodd" d="M9.31753 25.27C7.54305 25.4695 5.94773 24.1475 5.75429 22.3173C5.56085 20.4871 6.84253 18.8417 8.61701 18.6422C10.3915 18.4427 11.9868 19.7646 12.1803 21.5948C12.3737 23.425 11.092 25.0705 9.31753 25.27ZM9.32961 25.3842C7.49394 25.5906 5.84361 24.2231 5.6435 22.3298C5.44339 20.4365 6.76927 18.7343 8.60494 18.5279C10.4406 18.3215 12.0909 19.6891 12.291 21.5824C12.4912 23.4757 11.1653 25.1778 9.32961 25.3842Z" fill="white"/>
<path fill-rule="evenodd" clip-rule="evenodd" d="M4.80737 25.6838C2.9717 25.8902 1.32137 24.5227 1.12126 22.6294C0.921149 20.7361 2.24703 19.0339 4.0827 18.8275C5.76062 18.6389 7.28368 19.7652 7.68589 21.4062C8.16893 21.0004 8.76737 20.729 9.43279 20.6542C11.2685 20.4478 12.9188 21.8153 13.1189 23.7086C13.319 25.602 11.9931 27.3041 10.1575 27.5105C8.47955 27.6992 6.95648 26.5728 6.55427 24.9319C6.07123 25.3376 5.4728 25.609 4.80737 25.6838Z" fill="#462D80"/>
<path fill-rule="evenodd" clip-rule="evenodd" d="M7.6207 21.6092L7.75627 21.4953C8.22314 21.1031 8.80146 20.8408 9.44487 20.7685C11.2193 20.569 12.8147 21.8909 13.0081 23.7211C13.2016 25.5513 11.9199 27.1967 10.1454 27.3962C8.52349 27.5786 7.0511 26.4898 6.66232 24.9037L6.61946 24.7289L6.48389 24.8428C6.01702 25.2349 5.4387 25.4972 4.79529 25.5696C3.02081 25.7691 1.4255 24.4471 1.23205 22.6169C1.03861 20.7867 2.3203 19.1413 4.09478 18.9418C5.71667 18.7594 7.18906 19.8482 7.57784 21.4343L7.6207 21.6092ZM6.45865 25.0093C5.99317 25.3721 5.42955 25.6139 4.80737 25.6838C2.9717 25.8902 1.32137 24.5227 1.12126 22.6294C0.921149 20.7361 2.24703 19.0339 4.0827 18.8275C5.71906 18.6435 7.20814 19.7102 7.65396 21.2852C7.66528 21.3252 7.67593 21.3655 7.68589 21.4062C7.71728 21.3798 7.74916 21.354 7.78151 21.3288C8.247 20.9659 8.81061 20.7242 9.43279 20.6542C11.2685 20.4478 12.9188 21.8153 13.1189 23.7086C13.319 25.602 11.9931 27.3041 10.1575 27.5105C8.5211 27.6945 7.03202 26.6278 6.5862 25.0528C6.57488 25.0128 6.56423 24.9725 6.55427 24.9319C6.52288 24.9582 6.491 24.9841 6.45865 25.0093Z" fill="white"/>
<path d="M11.6164 23.1102C12.6444 22.1363 14.1243 21.7199 15.5652 22.1427C17.0062 22.5655 18.0519 23.723 18.429 25.1091C18.629 25.1362 18.8296 25.1787 19.0294 25.2373C20.8201 25.7627 22.0004 27.4228 22.0457 29.2462C24.1179 29.9806 25.2938 32.2682 24.6871 34.468C24.0595 36.7433 21.7624 38.0631 19.5563 37.4158C18.5008 37.1061 17.6573 36.4022 17.1334 35.503C16.2291 35.9832 15.1527 36.1238 14.0972 35.8141C12.0807 35.2224 10.8383 33.192 11.1189 31.1097C10.3792 31.3438 9.56751 31.3677 8.76782 31.133C6.56175 30.4857 5.28213 28.1165 5.90972 25.8411C6.5373 23.5658 8.83443 22.246 11.0405 22.8932C11.2403 22.9519 11.4325 23.0246 11.6164 23.1102Z" fill="#8C5AFF"/>
<path fill-rule="evenodd" clip-rule="evenodd" d="M11.6376 23.2461L11.6918 23.1948C12.6925 22.2469 14.1326 21.8418 15.5347 22.2532C16.9369 22.6646 17.9547 23.7909 18.3217 25.1401L18.3416 25.2132L18.4145 25.223C18.6091 25.2494 18.8043 25.2908 18.9989 25.3479C20.7414 25.8591 21.8902 27.4745 21.9343 29.2491L21.9363 29.3289L22.0095 29.3549C24.026 30.0696 25.1703 32.2958 24.5799 34.4365C23.9691 36.6508 21.7336 37.9352 19.5868 37.3053C18.5595 37.0039 17.7389 36.319 17.229 35.4438L17.1752 35.3516L17.0824 35.4008C16.2022 35.8681 15.1549 36.0049 14.1277 35.7035C12.1654 35.1277 10.9562 33.1518 11.2293 31.1255L11.2534 30.9469L11.0862 30.9998C10.3664 31.2276 9.57671 31.2509 8.79832 31.0225C6.65145 30.3925 5.40617 28.0869 6.01691 25.8726C6.62765 23.6583 8.86314 22.3739 11.01 23.0038C11.2046 23.0609 11.3917 23.1317 11.5706 23.2149L11.6376 23.2461ZM11.1039 31.2344C11.1083 31.1928 11.1133 31.1513 11.1189 31.1097C11.0801 31.122 11.0411 31.1337 11.002 31.1448C10.2941 31.3456 9.52558 31.3554 8.76782 31.133C6.56175 30.4857 5.28213 28.1165 5.90972 25.8411C6.5373 23.5658 8.83443 22.246 11.0405 22.8932C11.2403 22.9519 11.4325 23.0246 11.6164 23.1102C12.6444 22.1363 14.1243 21.7199 15.5652 22.1427C17.0062 22.5655 18.0519 23.723 18.429 25.1091C18.629 25.1362 18.8296 25.1787 19.0294 25.2373C20.8201 25.7627 22.0004 27.4228 22.0457 29.2462C24.1179 29.9806 25.2938 32.2682 24.6871 34.468C24.0595 36.7433 21.7624 38.0631 19.5563 37.4158C18.5008 37.1061 17.6573 36.4022 17.1334 35.503C16.2291 35.9832 15.1527 36.1238 14.0972 35.8141C12.121 35.2342 10.8882 33.2725 11.1039 31.2344Z" fill="white"/>
</g>
<path fill-rule="evenodd" clip-rule="evenodd" d="M50.9361 36.5228C53.6525 32.7402 55.259 28.0585 55.259 22.9898C55.259 10.4198 45.3793 0.229898 33.1921 0.229898C21.0049 0.229898 11.1252 10.4198 11.1252 22.9898C11.1252 25.2326 11.4398 27.3996 12.0258 29.4464L11.7809 29.4019C11.2089 27.3667 10.9023 25.2152 10.9023 22.9898C10.9023 10.2929 20.8818 0 33.1921 0C45.5024 0 55.4819 10.2929 55.4819 22.9898C55.4819 28.0686 53.8851 32.7628 51.1811 36.5674L50.9361 36.5228Z" fill="#8C5AFF"/>
<path fill-rule="evenodd" clip-rule="evenodd" d="M0.0482975 27.5604C0.0750182 27.4041 0.219528 27.2997 0.371069 27.3272L60.7367 38.3056C60.8883 38.3332 60.9894 38.4822 60.9627 38.6385C60.936 38.7948 60.7915 38.8992 60.6399 38.8716L0.274304 27.8933C0.122763 27.8657 0.0215767 27.7167 0.0482975 27.5604Z" fill="#8C5AFF"/>
<path d="M62.0124 40.107C61.6111 40.0093 61.3517 39.4221 61.0687 39.2275C60.5914 38.8994 60.5528 38.9799 60.6416 38.592C60.7305 38.2041 60.7301 38.2939 61.2993 38.2207C61.6367 38.1773 62.1235 37.7719 62.5248 37.8696C63.3857 38.6108 63.3863 38.6083 63.2448 39.2261C63.1033 39.844 63.1039 39.8414 62.0124 40.107Z" fill="#8C5AFF"/>
<path d="M66.2478 37.7845C67.3636 37.9875 69.6383 40.3853 69.6383 40.3853C69.6383 40.3853 66.8916 41.8701 65.5898 41.6334C64.288 41.3966 62.8774 39.5526 62.8774 39.5526L63.009 38.7828C63.009 38.7828 65.1319 37.5815 66.2478 37.7845Z" fill="#8C5AFF"/>
<path fill-rule="evenodd" clip-rule="evenodd" d="M69.6517 40.4111L69.6387 40.3857L69.6586 40.3656C69.6648 40.3721 69.6676 40.3812 69.6663 40.3902C69.6649 40.3992 69.6595 40.4069 69.6517 40.4111ZM63.0094 38.7832L62.996 38.758C62.9886 38.7622 62.9835 38.7696 62.982 38.7782L62.8504 39.548C62.849 39.5561 62.851 39.5644 62.856 39.5708L62.8632 39.5649C62.856 39.5708 62.856 39.5708 62.856 39.5708L62.8562 39.5712L62.857 39.5722L62.8602 39.5762C62.8629 39.5798 62.867 39.585 62.8723 39.5918C62.8831 39.6055 62.8989 39.6255 62.9196 39.6511C62.9609 39.7022 63.0213 39.7754 63.0978 39.8639C63.2508 40.041 63.4684 40.2796 63.7269 40.5257C64.2427 41.0167 64.9259 41.5421 65.5854 41.662C65.9165 41.7223 66.3366 41.6728 66.7783 41.5666C67.2207 41.4603 67.6874 41.2964 68.1128 41.1253C68.5383 40.9542 68.9229 40.7757 69.2011 40.64C69.3403 40.5721 69.4528 40.5149 69.5307 40.4747C69.5696 40.4546 69.5998 40.4387 69.6203 40.4279C69.6305 40.4225 69.6384 40.4183 69.6436 40.4155L69.6496 40.4123L69.6515 40.4112L69.6517 40.4111C69.6517 40.4111 69.6517 40.4111 69.6387 40.3857C69.6586 40.3656 69.6587 40.3656 69.6586 40.3656L69.657 40.3638L69.652 40.3586C69.6477 40.3541 69.6412 40.3473 69.6327 40.3385C69.6157 40.3208 69.5907 40.2949 69.5585 40.2619C69.494 40.1958 69.4006 40.1012 69.2852 39.9871C69.0542 39.7589 68.7346 39.4524 68.38 39.1396C68.0255 38.8268 67.6356 38.5072 67.2642 38.2529C66.8935 37.9993 66.5381 37.8084 66.2531 37.7566C65.9687 37.7048 65.6225 37.7428 65.2652 37.8272C64.9074 37.9117 64.536 38.0434 64.2001 38.1812C63.8641 38.319 63.5632 38.4632 63.3463 38.5729C63.2378 38.6277 63.1503 38.674 63.0899 38.7065C63.0597 38.7228 63.0363 38.7356 63.0204 38.7444C63.0124 38.7488 63.0064 38.7522 63.0023 38.7545L62.9976 38.7571L62.9961 38.7579L62.996 38.758C62.996 38.758 62.996 38.758 63.0094 38.7832ZM69.5923 40.3781C69.5754 40.3605 69.5508 40.335 69.5192 40.3027C69.4549 40.2368 69.3618 40.1425 69.2466 40.0286C69.0162 39.8009 68.6974 39.4952 68.3438 39.1832C67.9902 38.8712 67.6022 38.5533 67.2333 38.3008C66.8636 38.0478 66.5163 37.8628 66.2434 37.8132C65.9698 37.7634 65.6322 37.7995 65.2776 37.8832C64.9236 37.9669 64.555 38.0974 64.2207 38.2346C63.8864 38.3717 63.5869 38.5152 63.3708 38.6245C63.2629 38.6791 63.1758 38.7251 63.1157 38.7575C63.0857 38.7736 63.0625 38.7864 63.0467 38.7951C63.042 38.7977 63.0379 38.8 63.0345 38.8018L62.9075 39.5452C62.9097 39.5481 62.9124 39.5516 62.9156 39.5557C62.9262 39.5691 62.9419 39.5889 62.9624 39.6143C63.0033 39.665 63.0633 39.7377 63.1394 39.8257C63.2915 40.0018 63.5079 40.239 63.7647 40.4835C64.2797 40.9737 64.9527 41.4886 65.5951 41.6054C65.9149 41.6636 66.3263 41.6163 66.7657 41.5106C67.2045 41.4051 67.6685 41.2423 68.0925 41.0717C68.5165 40.9012 68.8999 40.7233 69.1773 40.588C69.316 40.5204 69.4282 40.4634 69.5057 40.4233C69.5428 40.4041 69.572 40.3888 69.5923 40.3781Z" fill="#8C5AFF"/>
<path d="M49.4666 48.513C49.4613 48.513 49.4541 48.5074 49.4452 48.4964C49.4417 48.4817 49.4372 48.4688 49.4319 48.4578C49.4265 48.4467 49.4238 48.4302 49.4238 48.4081C49.4238 48.3824 49.4292 48.3447 49.4399 48.295C49.4506 48.2454 49.4711 48.1709 49.5014 48.0716C49.5175 48.0201 49.538 47.9676 49.5629 47.9143C49.5879 47.8591 49.612 47.8086 49.6351 47.7626C49.6601 47.7148 49.6788 47.677 49.6913 47.6495C49.6913 47.6495 49.6984 47.6449 49.7127 47.6357C49.727 47.6246 49.7359 47.6173 49.7395 47.6136H49.7368C49.7403 47.6099 49.7412 47.6044 49.7395 47.597C49.7377 47.5878 49.7368 47.5796 49.7368 47.5722C49.7368 47.5501 49.743 47.5327 49.7555 47.5198C49.7698 47.5069 49.784 47.4941 49.7983 47.4812C49.8126 47.4646 49.8349 47.4481 49.8652 47.4315C49.8955 47.4131 49.9311 47.4003 49.9722 47.3929C49.9793 47.3911 49.9855 47.3901 49.9909 47.3901C49.9962 47.3901 50.0016 47.3901 50.0069 47.3901C50.0355 47.3901 50.0578 47.3966 50.0738 47.4094C50.0899 47.4205 50.1014 47.4334 50.1086 47.4481C50.1121 47.4517 50.1157 47.4563 50.1193 47.4619C50.1228 47.4674 50.1246 47.4747 50.1246 47.4839C50.1246 47.4913 50.1211 47.5014 50.1139 47.5143C50.1086 47.5253 50.0961 47.54 50.0765 47.5584C50.0676 47.5676 50.0542 47.5787 50.0364 47.5915C50.0203 47.6026 50.0052 47.6154 49.9909 47.6301C49.9731 47.6485 49.9561 47.6697 49.9401 47.6936C49.9258 47.7175 49.9106 47.7387 49.8946 47.7571C49.8857 47.7681 49.8705 47.7883 49.8491 47.8177C49.8295 47.8453 49.8099 47.8729 49.7903 47.9005C49.7707 47.9281 49.7555 47.9483 49.7448 47.9612C49.7377 47.9686 49.7323 47.9814 49.7288 47.9998C49.7252 48.0182 49.7181 48.0348 49.7074 48.0495C49.6949 48.0642 49.6806 48.0762 49.6646 48.0853C49.6485 48.0945 49.636 48.1083 49.6271 48.1267V48.124C49.6182 48.1405 49.6075 48.1598 49.595 48.1819C49.5843 48.2021 49.5745 48.2224 49.5656 48.2426C49.5478 48.2775 49.5362 48.3042 49.5308 48.3226C49.5255 48.341 49.5228 48.3548 49.5228 48.364C49.5228 48.375 49.5246 48.3833 49.5282 48.3888C49.5335 48.3925 49.5344 48.4017 49.5308 48.4164C49.5237 48.433 49.5148 48.4532 49.5041 48.4771C49.4934 48.501 49.4809 48.513 49.4666 48.513ZM49.2339 48.993C49.2161 48.993 49.2045 48.9865 49.1992 48.9737C49.1938 48.9626 49.1911 48.9507 49.1911 48.9378C49.1893 48.9305 49.1876 48.9213 49.1858 48.9102C49.184 48.8973 49.1831 48.8845 49.1831 48.8716C49.1831 48.8587 49.1849 48.8468 49.1885 48.8357C49.192 48.8247 49.2 48.8155 49.2125 48.8081C49.2892 48.7658 49.3472 48.7447 49.3864 48.7447C49.4131 48.7447 49.431 48.753 49.4399 48.7695C49.4506 48.7842 49.4559 48.8045 49.4559 48.8302C49.4559 48.8376 49.455 48.8458 49.4533 48.855C49.4533 48.8624 49.4524 48.8707 49.4506 48.8799C49.4488 48.9038 49.4327 48.9203 49.4024 48.9295C49.3721 48.9369 49.3472 48.9452 49.3275 48.9544C49.3133 48.9617 49.2972 48.97 49.2794 48.9792C49.2633 48.9884 49.2482 48.993 49.2339 48.993Z" fill="#8C5AFF"/>
<path d="M46.6985 49.9997C46.6397 49.9997 46.5933 49.9786 46.5594 49.9363C46.5238 49.8958 46.4988 49.8471 46.4845 49.7901C46.4685 49.7349 46.4604 49.6852 46.4604 49.6411C46.4694 49.5988 46.4765 49.5648 46.4818 49.539C46.4854 49.5151 46.5015 49.4848 46.53 49.448C46.5425 49.4351 46.5523 49.4287 46.5594 49.4287C46.5683 49.4287 46.5728 49.4379 46.5728 49.4563C46.571 49.4747 46.5701 49.4949 46.5701 49.517C46.5701 49.5445 46.5701 49.5804 46.5701 49.6246C46.5701 49.6687 46.5737 49.7128 46.5808 49.757C46.5862 49.803 46.5986 49.8407 46.6183 49.8701C46.6361 49.9013 46.6628 49.917 46.6985 49.917C46.7663 49.917 46.826 49.8986 46.8777 49.8618C46.9312 49.8269 46.9794 49.7809 47.0222 49.7239C47.0649 49.6687 47.1051 49.6108 47.1425 49.5501C47.1568 49.528 47.1728 49.5078 47.1907 49.4894C47.2085 49.471 47.2237 49.4517 47.2361 49.4314C47.2504 49.4094 47.2611 49.3864 47.2682 49.3625C47.2771 49.3386 47.2878 49.3174 47.3003 49.299C47.3556 49.2199 47.4038 49.1317 47.4448 49.0342C47.4858 48.9385 47.5312 48.8447 47.5812 48.7528C47.5901 48.7325 47.6035 48.7013 47.6213 48.659C47.6391 48.6167 47.657 48.5744 47.6748 48.5321C47.6926 48.4879 47.706 48.4548 47.7149 48.4328C47.7292 48.3886 47.7381 48.3629 47.7417 48.3555V48.3528C47.7238 48.3675 47.714 48.3767 47.7122 48.3803C47.7105 48.3822 47.7069 48.3859 47.7015 48.3914C47.698 48.3951 47.681 48.4089 47.6507 48.4328L47.6454 48.4355C47.6436 48.4337 47.6338 48.441 47.616 48.4576C47.5999 48.4723 47.5821 48.4879 47.5625 48.5045C47.5446 48.521 47.5312 48.5312 47.5223 48.5348C47.5134 48.5422 47.4965 48.5587 47.4715 48.5845C47.4483 48.6084 47.4323 48.6231 47.4234 48.6286C47.377 48.6728 47.3315 48.7123 47.287 48.7473C47.2424 48.7804 47.1951 48.8126 47.1452 48.8438C47.1434 48.8438 47.1407 48.8466 47.1372 48.8521C47.1354 48.8576 47.1318 48.8622 47.1265 48.8659H47.1238C47.1184 48.8696 47.1131 48.8714 47.1077 48.8714C47.1024 48.8696 47.0979 48.8705 47.0944 48.8742L47.0302 48.9045C47.0088 48.9137 46.9901 48.9183 46.974 48.9183C46.9544 48.9183 46.9375 48.9119 46.9232 48.899C46.9089 48.8861 46.9018 48.8659 46.9018 48.8383C46.9018 48.8328 46.9018 48.8263 46.9018 48.819C46.9036 48.8098 46.9054 48.8015 46.9071 48.7942C46.9214 48.7371 46.941 48.6728 46.966 48.601C46.9927 48.5275 47.032 48.4475 47.0837 48.361C47.0962 48.3408 47.1033 48.3261 47.1051 48.3169C47.1086 48.3077 47.1104 48.3013 47.1104 48.2976V48.2865C47.1104 48.2829 47.1113 48.2783 47.1131 48.2728C47.1149 48.2672 47.1193 48.258 47.1265 48.2452C47.1407 48.2249 47.1488 48.2093 47.1505 48.1983C47.1541 48.1854 47.1568 48.1734 47.1586 48.1624C47.1675 48.1403 47.1791 48.1256 47.1933 48.1183C47.2076 48.1091 47.221 48.1017 47.2335 48.0962C47.2638 48.0833 47.2932 48.0714 47.3217 48.0603C47.352 48.0475 47.377 48.041 47.3966 48.041C47.4216 48.041 47.4367 48.0521 47.4421 48.0741C47.4439 48.0815 47.4448 48.0879 47.4448 48.0934C47.4448 48.0989 47.4448 48.1045 47.4448 48.11C47.4448 48.1431 47.435 48.1716 47.4153 48.1955C47.3975 48.2194 47.369 48.2479 47.3297 48.281C47.3155 48.2939 47.3048 48.304 47.2977 48.3114C47.2905 48.3187 47.2825 48.3288 47.2736 48.3417C47.2664 48.3528 47.254 48.3721 47.2361 48.3997H47.2335C47.1871 48.4714 47.1541 48.533 47.1345 48.5845C47.1149 48.636 47.1015 48.6811 47.0944 48.7197C47.0926 48.7289 47.0926 48.7344 47.0944 48.7362C47.0962 48.7381 47.0997 48.7399 47.1051 48.7417C47.114 48.7454 47.122 48.7454 47.1291 48.7417C47.1559 48.7325 47.188 48.7142 47.2254 48.6866C47.2647 48.6571 47.3039 48.6259 47.3431 48.5928C47.3824 48.5578 47.4171 48.5284 47.4474 48.5045C47.4564 48.4971 47.4653 48.4916 47.4742 48.4879C47.4849 48.4824 47.4929 48.4778 47.4983 48.4741C47.5072 48.4649 47.5143 48.4567 47.5197 48.4493C47.5268 48.442 47.5339 48.4355 47.5411 48.43C47.6124 48.373 47.6668 48.3224 47.7042 48.2783C47.7417 48.2323 47.7711 48.1937 47.7925 48.1624C47.8139 48.1293 47.8335 48.1054 47.8513 48.0907C47.8727 48.0741 47.8915 48.0658 47.9075 48.0658C47.9271 48.0658 47.9423 48.0732 47.953 48.0879C47.9655 48.1026 47.9726 48.1173 47.9744 48.1321C47.9779 48.1468 47.9797 48.1615 47.9797 48.1762C47.9797 48.1964 47.9762 48.2139 47.969 48.2286C47.9565 48.247 47.9512 48.2626 47.953 48.2755C47.9548 48.2865 47.9503 48.3022 47.9396 48.3224C47.9307 48.3408 47.9209 48.3629 47.9102 48.3886C47.8995 48.4144 47.8888 48.4346 47.8781 48.4493C47.8638 48.4916 47.8433 48.5394 47.8166 48.5928C47.7898 48.6461 47.7622 48.6985 47.7336 48.75C47.7069 48.7997 47.6837 48.8411 47.6641 48.8742C47.6463 48.9054 47.6373 48.9211 47.6373 48.9211C47.6142 48.9836 47.5865 49.0498 47.5544 49.1197C47.5241 49.1896 47.4885 49.2549 47.4474 49.3156C47.4064 49.3744 47.3601 49.4425 47.3084 49.5197C47.2584 49.5988 47.2023 49.6742 47.1398 49.7459C47.0792 49.8195 47.0115 49.8802 46.9366 49.928C46.8634 49.9758 46.7841 49.9997 46.6985 49.9997Z" fill="#8C5AFF"/>
<path d="M44.7117 48.987C44.6992 48.987 44.6885 48.9861 44.6796 48.9842C44.6725 48.9824 44.668 48.9815 44.6662 48.9815L44.6635 48.9787C44.6582 48.9732 44.6537 48.9686 44.6502 48.9649C44.6484 48.9613 44.6448 48.9576 44.6395 48.9539C44.6323 48.9484 44.6234 48.9419 44.6127 48.9346C44.602 48.9254 44.5967 48.9061 44.5967 48.8767C44.5967 48.8509 44.602 48.8141 44.6127 48.7663C44.6252 48.7166 44.6484 48.6504 44.6823 48.5677H44.6849C44.7099 48.529 44.7304 48.4895 44.7465 48.449C44.7643 48.4067 44.7821 48.369 44.8 48.3359V48.3414C44.8 48.3378 44.8098 48.3203 44.8294 48.289C44.849 48.2559 44.8722 48.2164 44.8989 48.1704C44.9275 48.1244 44.956 48.0784 44.9845 48.0325C45.0131 47.9865 45.0371 47.9469 45.0567 47.9138C45.0781 47.8807 45.0897 47.8623 45.0915 47.8587V47.8642C45.0933 47.855 45.1004 47.8412 45.1129 47.8228C45.1254 47.8044 45.1325 47.7943 45.1343 47.7925H45.1316C45.1495 47.763 45.1611 47.741 45.1664 47.7262C45.1735 47.7097 45.1807 47.6941 45.1878 47.6793C45.1967 47.6628 45.2119 47.6407 45.2333 47.6131C45.2422 47.5984 45.2573 47.5773 45.2787 47.5497C45.3019 47.5221 45.3189 47.5019 45.3296 47.489C45.3385 47.4798 45.3492 47.4642 45.3617 47.4421C45.3741 47.4182 45.3875 47.4025 45.4018 47.3952C45.4268 47.3823 45.4571 47.3704 45.4927 47.3593C45.5284 47.3483 45.5605 47.3428 45.589 47.3428C45.6336 47.3428 45.6586 47.3584 45.6639 47.3897C45.6639 47.4522 45.6274 47.5193 45.5542 47.5911C45.5364 47.6095 45.5132 47.6288 45.4847 47.649C45.4562 47.6692 45.4348 47.6895 45.4205 47.7097H45.4232C45.4036 47.7391 45.3777 47.7667 45.3456 47.7925C45.3153 47.8182 45.2921 47.8412 45.2761 47.8614C45.2636 47.8798 45.2475 47.8954 45.2279 47.9083C45.2083 47.9194 45.1932 47.9322 45.1825 47.9469C45.1022 48.0591 45.0398 48.1548 44.9952 48.2339C44.9506 48.3111 44.923 48.3598 44.9123 48.3801C44.9052 48.3929 44.8954 48.4132 44.8829 48.4408C44.8722 48.4665 44.8615 48.4932 44.8508 48.5208C44.8401 48.5465 44.8321 48.5658 44.8267 48.5787C44.8178 48.6081 44.8089 48.6284 44.8 48.6394C44.791 48.6486 44.7848 48.6615 44.7812 48.678C44.7848 48.678 44.791 48.6826 44.8 48.6918C44.8089 48.6992 44.816 48.7001 44.8214 48.6946L44.915 48.6228C44.9399 48.6026 44.9596 48.5842 44.9738 48.5677C44.9881 48.5511 45.0166 48.5226 45.0594 48.4821C45.0648 48.4785 45.0755 48.4693 45.0915 48.4546C45.1076 48.4398 45.1245 48.4233 45.1423 48.4049C45.1566 48.3755 45.1718 48.346 45.1878 48.3166C45.2039 48.2854 45.2235 48.2559 45.2466 48.2283C45.2984 48.164 45.3536 48.1143 45.4125 48.0794C45.4731 48.0426 45.5284 48.0214 45.5783 48.0159C45.6051 48.0159 45.6336 48.0168 45.6639 48.0187C45.696 48.0187 45.721 48.0224 45.7388 48.0297C45.7638 48.0426 45.7798 48.0573 45.787 48.0738C45.7941 48.0904 45.7977 48.106 45.7977 48.1207C45.7977 48.141 45.795 48.1557 45.7896 48.1649C45.7825 48.1759 45.7736 48.186 45.7629 48.1952C45.7522 48.2044 45.7352 48.209 45.7121 48.209C45.6996 48.2053 45.6871 48.1971 45.6746 48.1842C45.6639 48.1713 45.6407 48.1649 45.6051 48.1649C45.589 48.1722 45.5739 48.1805 45.5596 48.1897C45.5471 48.1971 45.5311 48.2072 45.5115 48.2201V48.2228C45.4865 48.2394 45.4642 48.255 45.4446 48.2697C45.4268 48.2844 45.4107 48.2982 45.3964 48.3111C45.3893 48.3185 45.3768 48.3277 45.359 48.3387C45.3429 48.3497 45.3242 48.3626 45.3028 48.3773H45.3055C45.2823 48.4123 45.2663 48.4481 45.2573 48.4849C45.2484 48.5199 45.244 48.553 45.244 48.5842C45.244 48.6339 45.252 48.678 45.268 48.7166C45.2859 48.7534 45.3046 48.781 45.3242 48.7994C45.3349 48.8068 45.3501 48.8169 45.3697 48.8298C45.3911 48.8426 45.4161 48.8491 45.4446 48.8491C45.4927 48.8491 45.532 48.8435 45.5623 48.8325C45.5926 48.8196 45.6318 48.8012 45.68 48.7773H45.6826C45.6809 48.7755 45.6889 48.7773 45.7067 48.7829C45.7245 48.7884 45.7335 48.7985 45.7335 48.8132C45.7335 48.8224 45.7245 48.8362 45.7067 48.8546L45.704 48.8573L45.6158 48.8987C45.6086 48.9042 45.5908 48.9125 45.5623 48.9236C45.5355 48.9346 45.5079 48.9447 45.4794 48.9539C45.4508 48.9631 45.4294 48.9677 45.4152 48.9677C45.4098 48.9677 45.3982 48.964 45.3804 48.9567C45.3626 48.9493 45.3438 48.9419 45.3242 48.9346C45.3064 48.9272 45.2921 48.9236 45.2814 48.9236C45.2565 48.9199 45.2386 48.9107 45.2279 48.896C45.2172 48.8812 45.2092 48.8656 45.2039 48.8491C45.1985 48.8325 45.1905 48.8196 45.1798 48.8104C45.1281 48.7608 45.1022 48.6927 45.1022 48.6063C45.1022 48.5953 45.1022 48.5851 45.1022 48.5759C45.104 48.5649 45.1058 48.5539 45.1076 48.5428C45.0933 48.5557 45.0799 48.5686 45.0674 48.5815C45.055 48.5925 45.0469 48.5999 45.0434 48.6035L45.0139 48.6228C44.989 48.6523 44.9667 48.6808 44.9471 48.7084C44.9275 48.7341 44.9061 48.7608 44.8829 48.7884H44.8775C44.8775 48.7865 44.8704 48.7957 44.8561 48.816C44.8419 48.8344 44.8347 48.8435 44.8347 48.8435C44.8312 48.8491 44.824 48.8619 44.8133 48.8822C44.8026 48.9024 44.791 48.9226 44.7786 48.9429C44.7679 48.9613 44.7589 48.9732 44.7518 48.9787C44.7411 48.9842 44.7277 48.987 44.7117 48.987Z" fill="#8C5AFF"/>
<path d="M42.5952 49.1254C42.5667 49.1254 42.5426 49.1236 42.523 49.1199C42.5034 49.1162 42.4945 49.1079 42.4963 49.0951C42.4927 49.0951 42.4873 49.0914 42.4802 49.084L42.4775 49.0785C42.4775 49.0638 42.482 49.0518 42.4909 49.0426L42.4936 49.0399C42.4954 49.038 42.498 49.0371 42.5016 49.0371C42.5141 49.0371 42.5284 49.039 42.5444 49.0426C42.5605 49.0463 42.572 49.0472 42.5792 49.0454C42.6559 49.0215 42.7254 48.9911 42.7878 48.9544C42.852 48.9176 42.9064 48.879 42.951 48.8385C42.9688 48.8238 42.9849 48.8081 42.9991 48.7916C43.0152 48.775 43.0294 48.7594 43.0419 48.7447C43.0455 48.7392 43.0508 48.7355 43.058 48.7337C43.0669 48.73 43.0722 48.7272 43.074 48.7254L43.0767 48.7226C43.0767 48.7189 43.0758 48.7162 43.074 48.7144C43.074 48.7107 43.0758 48.7052 43.0794 48.6978C43.115 48.6463 43.1329 48.6068 43.1329 48.5792C43.1329 48.5626 43.1284 48.5525 43.1195 48.5488C43.0999 48.5304 43.0722 48.5157 43.0366 48.5047C43.0027 48.4936 42.9688 48.4845 42.9349 48.4771C42.901 48.4679 42.8752 48.4596 42.8574 48.4523C42.8253 48.4376 42.8092 48.4127 42.8092 48.3778C42.8092 48.3428 42.8226 48.3033 42.8493 48.2592C42.8779 48.2132 42.9171 48.1672 42.967 48.1212C43.0473 48.0513 43.132 47.9952 43.2211 47.9529C43.3103 47.9088 43.3887 47.8867 43.4565 47.8867C43.4922 47.8867 43.5234 47.8941 43.5501 47.9088C43.5769 47.9235 43.5956 47.9474 43.6063 47.9805C43.6116 47.9971 43.6143 48.0127 43.6143 48.0274C43.6143 48.0513 43.6081 48.0725 43.5956 48.0909C43.5849 48.1074 43.5715 48.1157 43.5555 48.1157C43.5519 48.1157 43.5448 48.1166 43.5341 48.1185C43.5252 48.1203 43.5171 48.1203 43.51 48.1185C43.5029 48.1148 43.4957 48.1083 43.4886 48.0991C43.4815 48.0899 43.4761 48.0854 43.4726 48.0854H43.4699C43.4627 48.0817 43.4574 48.078 43.4538 48.0743C43.452 48.0706 43.4467 48.0688 43.4378 48.0688H43.4271L43.3736 48.066C43.3468 48.066 43.3165 48.0716 43.2826 48.0826C43.2488 48.0936 43.2086 48.1148 43.1623 48.146V48.1433C43.1462 48.1562 43.1293 48.1727 43.1115 48.1929C43.0936 48.2113 43.0767 48.2306 43.0606 48.2509C43.0499 48.2619 43.0375 48.2729 43.0232 48.284C43.0107 48.295 43.0027 48.3051 42.9991 48.3143C42.992 48.329 42.9884 48.3419 42.9884 48.353C42.9884 48.364 42.9929 48.3732 43.0018 48.3805C43.0303 48.3934 43.0696 48.4081 43.1195 48.4247C43.1694 48.4394 43.2211 48.4651 43.2746 48.5019C43.2853 48.5093 43.296 48.5212 43.3067 48.5378C43.3192 48.5525 43.3254 48.5718 43.3254 48.5957C43.3254 48.6141 43.3219 48.6316 43.3147 48.6481C43.3094 48.6573 43.3014 48.6684 43.2907 48.6812C43.28 48.6923 43.2728 48.7024 43.2693 48.7116L43.2666 48.7144C43.2345 48.7475 43.1935 48.7907 43.1436 48.844C43.0936 48.8955 43.0232 48.9498 42.9322 49.0068C42.8627 49.0509 42.7976 49.0813 42.737 49.0978C42.6764 49.1162 42.6291 49.1254 42.5952 49.1254Z" fill="#8C5AFF"/>
<path d="M39.101 49.0394C39.0957 49.0394 39.0841 49.0357 39.0663 49.0284C39.0484 49.0229 39.0297 49.0174 39.0101 49.0118C38.9905 49.0063 38.9762 49.0036 38.9673 49.0036H38.9646C38.9307 49.0036 38.9049 48.9898 38.8871 48.9622C38.871 48.9327 38.8603 48.9061 38.855 48.8822C38.8532 48.873 38.8514 48.8638 38.8496 48.8546C38.8496 48.8435 38.8496 48.8325 38.8496 48.8215C38.8496 48.7608 38.8639 48.6918 38.8924 48.6146C38.9209 48.5373 38.9593 48.4573 39.0074 48.3746C39.0574 48.2918 39.1135 48.2145 39.1759 48.1428C39.2401 48.0674 39.3052 48.0086 39.3712 47.9663C39.4372 47.924 39.4969 47.9 39.5504 47.8945C39.5789 47.8945 39.6084 47.9028 39.6387 47.9194C39.669 47.9359 39.6904 47.9442 39.7029 47.9442H39.7055C39.743 47.9442 39.7679 47.9598 39.7804 47.9911C39.7929 48.0224 39.7992 48.0536 39.7992 48.0849C39.7992 48.1033 39.7956 48.1226 39.7885 48.1428C39.7813 48.1631 39.7751 48.1796 39.7697 48.1925C39.7662 48.2054 39.7662 48.21 39.7697 48.2063L39.7724 48.2035C39.7528 48.2403 39.7305 48.278 39.7055 48.3166C39.6824 48.3534 39.644 48.4021 39.5905 48.4628C39.5691 48.4867 39.5397 48.5107 39.5023 48.5346C39.4666 48.5566 39.4318 48.5769 39.3979 48.5953C39.3641 48.6137 39.34 48.6265 39.3257 48.6339C39.3115 48.6412 39.2927 48.6449 39.2695 48.6449C39.2464 48.6449 39.2205 48.6422 39.192 48.6366C39.1652 48.6311 39.1421 48.6284 39.1224 48.6284C39.1117 48.6284 39.1019 48.6293 39.093 48.6311C39.0841 48.633 39.0779 48.6385 39.0743 48.6477C39.0458 48.6955 39.0315 48.7433 39.0315 48.7911C39.0315 48.8206 39.0377 48.8454 39.0502 48.8656C39.0645 48.884 39.0877 48.8932 39.1198 48.8932C39.1305 48.8932 39.1421 48.8923 39.1545 48.8904C39.167 48.8886 39.1795 48.8849 39.192 48.8794C39.2223 48.8739 39.2437 48.8711 39.2562 48.8711C39.2687 48.8711 39.282 48.8693 39.2963 48.8656C39.3123 48.8619 39.3382 48.8527 39.3739 48.838C39.4131 48.8215 39.4425 48.8095 39.4621 48.8022C39.4835 48.7948 39.4996 48.7884 39.5103 48.7829C39.5228 48.7773 39.5352 48.7709 39.5477 48.7635C39.5602 48.7562 39.5798 48.7452 39.6066 48.7304C39.6262 48.7194 39.6369 48.7139 39.6387 48.7139C39.6422 48.7139 39.6476 48.712 39.6547 48.7084C39.6618 48.7029 39.6806 48.69 39.7109 48.6697C39.743 48.6477 39.7679 48.6366 39.7858 48.6366C39.7983 48.6366 39.8045 48.6412 39.8045 48.6504C39.8045 48.6578 39.7983 48.6688 39.7858 48.6835C39.7751 48.6983 39.7555 48.7157 39.7269 48.736C39.6966 48.758 39.6618 48.7838 39.6226 48.8132C39.5852 48.8426 39.5504 48.8656 39.5183 48.8822C39.5076 48.884 39.4978 48.8886 39.4889 48.896C39.4817 48.9015 39.471 48.9061 39.4568 48.9098L39.307 48.976L39.3097 48.9732C39.315 48.9677 39.3088 48.9677 39.2909 48.9732C39.2749 48.9787 39.2535 48.987 39.2268 48.998C39.2018 49.0091 39.1768 49.0183 39.1519 49.0256C39.1287 49.0348 39.1117 49.0394 39.101 49.0394ZM39.2054 48.5649C39.2125 48.5649 39.2196 48.5649 39.2268 48.5649C39.2339 48.5631 39.241 48.5612 39.2482 48.5594C39.2606 48.5484 39.2722 48.5401 39.2829 48.5346C39.2936 48.529 39.3079 48.5199 39.3257 48.507C39.3436 48.4941 39.3685 48.4711 39.4006 48.438C39.4274 48.4104 39.4505 48.3911 39.4702 48.3801C39.4898 48.3672 39.5058 48.3534 39.5183 48.3387C39.5557 48.2854 39.5754 48.2449 39.5771 48.2173C39.5807 48.1897 39.5825 48.164 39.5825 48.1401C39.5611 48.1106 39.5415 48.0959 39.5237 48.0959C39.513 48.0959 39.4969 48.1005 39.4755 48.1097C39.4452 48.1226 39.4202 48.1345 39.4006 48.1456C39.3828 48.1566 39.356 48.1805 39.3204 48.2173C39.2794 48.2614 39.2419 48.3047 39.208 48.347C39.1741 48.3874 39.1474 48.4288 39.1278 48.4711C39.126 48.4785 39.1233 48.4858 39.1198 48.4932C39.118 48.4987 39.1171 48.5033 39.1171 48.507C39.1171 48.5272 39.126 48.5419 39.1438 48.5511C39.1617 48.5603 39.1822 48.5649 39.2054 48.5649Z" fill="#8C5AFF"/>
<path d="M36.4718 48.9677C36.4558 48.9622 36.4478 48.9429 36.4478 48.9098C36.4478 48.8895 36.4504 48.8665 36.4558 48.8408C36.4629 48.815 36.4727 48.7847 36.4852 48.7497V48.758C36.4888 48.758 36.4923 48.7516 36.4959 48.7387C36.4995 48.7258 36.5004 48.7185 36.4986 48.7166C36.5004 48.7056 36.5075 48.6937 36.52 48.6808C36.5342 48.6661 36.5405 48.6578 36.5387 48.6559V48.6532C36.5423 48.6458 36.5423 48.6412 36.5387 48.6394C36.5351 48.6376 36.536 48.6302 36.5414 48.6173C36.561 48.575 36.577 48.5465 36.5895 48.5318C36.602 48.5153 36.6154 48.4923 36.6296 48.4628V48.4684C36.6314 48.4684 36.6332 48.461 36.635 48.4463C36.6386 48.4316 36.643 48.4196 36.6484 48.4104V48.4159C36.6501 48.4086 36.6537 48.4021 36.6591 48.3966C36.6662 48.3893 36.6707 48.3847 36.6724 48.3828C36.6885 48.3534 36.6992 48.3313 36.7045 48.3166C36.7117 48.3019 36.7188 48.2881 36.7259 48.2752C36.7348 48.2605 36.7491 48.2403 36.7687 48.2145H36.7661C36.7732 48.2053 36.783 48.1897 36.7955 48.1676C36.8097 48.1456 36.8222 48.1272 36.8329 48.1125C36.8454 48.0959 36.8516 48.0913 36.8516 48.0987V48.1014C36.8516 48.107 36.8588 48.0987 36.873 48.0766C36.8873 48.0545 36.9042 48.0279 36.9239 47.9966C36.9435 47.9635 36.9613 47.9341 36.9774 47.9083C36.9934 47.8807 37.0032 47.8642 37.0068 47.8587V47.8614C37.0103 47.8559 37.0175 47.844 37.0282 47.8256C37.0407 47.8053 37.0478 47.7943 37.0496 47.7925H37.0469C37.0647 47.763 37.0763 47.741 37.0817 47.7262C37.0888 47.7097 37.0959 47.6941 37.1031 47.6793C37.112 47.6628 37.1271 47.6407 37.1485 47.6131L37.2422 47.489C37.2511 47.4798 37.2618 47.4642 37.2743 47.4421C37.2885 47.4182 37.3028 47.4025 37.3171 47.3952C37.342 47.3823 37.3723 47.3704 37.408 47.3593C37.4454 47.3483 37.4784 47.3428 37.507 47.3428C37.5266 47.3428 37.5426 47.3465 37.5551 47.3538C37.5694 47.3593 37.5774 47.3713 37.5792 47.3897C37.5774 47.4173 37.5676 47.4494 37.5498 47.4862C37.5319 47.5212 37.5052 47.5561 37.4695 47.5911C37.4481 47.6095 37.4223 47.6223 37.3919 47.6297C37.3616 47.6352 37.3402 47.6481 37.3278 47.6683H37.3304C37.3108 47.6977 37.2858 47.7327 37.2555 47.7731C37.227 47.8118 37.2056 47.8412 37.1913 47.8614C37.1771 47.8798 37.161 47.8964 37.1432 47.9111C37.1254 47.9258 37.1111 47.9423 37.1004 47.9607C37.0737 47.9975 37.054 48.0288 37.0416 48.0545C37.0291 48.0803 37.0166 48.106 37.0041 48.1318C36.9934 48.1557 36.9738 48.1833 36.9453 48.2145C36.8935 48.2716 36.8588 48.3185 36.8409 48.3552C36.8231 48.3902 36.8124 48.427 36.8088 48.4656C36.816 48.4564 36.824 48.4481 36.8329 48.4408C36.8722 48.4003 36.9265 48.3562 36.9961 48.3083C37.0674 48.2605 37.1405 48.2136 37.2154 48.1676H37.2208C37.2225 48.1676 37.2315 48.163 37.2475 48.1539C37.2653 48.1447 37.2841 48.1336 37.3037 48.1207C37.3251 48.106 37.3429 48.0941 37.3572 48.0849C37.3714 48.0738 37.3759 48.0683 37.3706 48.0683H37.3679C37.3875 48.0555 37.4214 48.0407 37.4695 48.0242C37.5498 47.9966 37.6193 47.9828 37.6782 47.9828C37.7174 47.9828 37.7459 47.9892 37.7637 48.0021C37.7798 48.0187 37.7878 48.0417 37.7878 48.0711C37.7878 48.0932 37.7825 48.1198 37.7718 48.1511V48.1456C37.77 48.1456 37.7664 48.1529 37.7611 48.1676C37.7557 48.1805 37.7495 48.1916 37.7423 48.2008C37.7406 48.2081 37.7343 48.2201 37.7236 48.2366C37.7129 48.2513 37.7076 48.2587 37.7076 48.2587V48.2559C37.6987 48.278 37.6897 48.2946 37.6808 48.3056C37.6719 48.3148 37.6612 48.3277 37.6487 48.3442C37.6327 48.3663 37.6113 48.3985 37.5845 48.4408C37.5596 48.4831 37.5346 48.5272 37.5096 48.5732C37.4865 48.6192 37.4704 48.6624 37.4615 48.7028C37.4597 48.7157 37.4517 48.7323 37.4374 48.7525C37.4249 48.7727 37.4196 48.7875 37.4214 48.7966V48.7994C37.4214 48.8031 37.4249 48.8077 37.4321 48.8132C37.4392 48.8187 37.4437 48.8233 37.4454 48.827C37.4508 48.8344 37.4535 48.8435 37.4535 48.8546C37.4535 48.8711 37.4463 48.8877 37.4321 48.9042C37.4178 48.9208 37.3946 48.9291 37.3625 48.9291C37.3393 48.9291 37.3242 48.9236 37.3171 48.9125C37.3117 48.9015 37.3046 48.8895 37.2957 48.8767V48.8491L37.285 48.8518H37.2796C37.2725 48.8518 37.2662 48.8472 37.2609 48.838V48.8353C37.2609 48.8279 37.2591 48.8178 37.2555 48.8049C37.2538 48.7902 37.2529 48.7792 37.2529 48.7718C37.2529 48.7589 37.2582 48.7396 37.2689 48.7139C37.2796 48.6881 37.2912 48.6624 37.3037 48.6366C37.3162 48.6091 37.3251 48.5888 37.3304 48.5759C37.3376 48.5539 37.3554 48.5235 37.3839 48.4849C37.4125 48.4463 37.4428 48.4067 37.4749 48.3663C37.507 48.324 37.531 48.289 37.5471 48.2614C37.556 48.2449 37.5622 48.2302 37.5658 48.2173C37.5694 48.2026 37.5712 48.1897 37.5712 48.1787C37.5712 48.1585 37.5649 48.1437 37.5524 48.1345C37.5417 48.1235 37.5275 48.1171 37.5096 48.1152C37.5025 48.1152 37.49 48.1171 37.4722 48.1207C37.4561 48.1226 37.4392 48.1272 37.4214 48.1345C37.4142 48.1364 37.4 48.1437 37.3786 48.1566C37.359 48.1695 37.3402 48.1814 37.3224 48.1925C37.3064 48.2035 37.301 48.209 37.3064 48.209H37.309C37.2948 48.2182 37.2814 48.2265 37.2689 48.2339C37.2582 48.2394 37.2439 48.2486 37.2261 48.2614C37.2208 48.267 37.2065 48.2771 37.1833 48.2918C37.1619 48.3065 37.1396 48.3212 37.1164 48.3359C37.095 48.3506 37.0799 48.3608 37.071 48.3663C36.9836 48.4306 36.8998 48.5005 36.8195 48.5759C36.7393 48.6495 36.6707 48.7268 36.6136 48.8077C36.6065 48.8169 36.6011 48.8298 36.5975 48.8463C36.594 48.8629 36.5895 48.8767 36.5842 48.8877C36.577 48.9006 36.5699 48.9098 36.5628 48.9153C36.5556 48.919 36.5503 48.9226 36.5467 48.9263C36.5325 48.9447 36.5182 48.9567 36.5039 48.9622C36.4914 48.9659 36.4807 48.9677 36.4718 48.9677Z" fill="#8C5AFF"/>
<path d="M34.8516 48.9872C34.8356 48.9872 34.8249 48.9798 34.8195 48.9651C34.8142 48.9467 34.8062 48.9283 34.7955 48.91C34.7866 48.8897 34.7848 48.8621 34.7901 48.8272C34.7901 48.8272 34.7937 48.8171 34.8008 48.7968C34.8079 48.7748 34.8151 48.7545 34.8222 48.7362C34.8311 48.7159 34.84 48.6948 34.849 48.6727C34.8579 48.6506 34.8677 48.6194 34.8784 48.5789C34.8855 48.5605 34.8944 48.532 34.9051 48.4934C34.9176 48.4548 34.9328 48.4198 34.9506 48.3885V48.3913C34.9774 48.3416 35.005 48.2929 35.0335 48.2451C35.0638 48.1954 35.0942 48.1467 35.1245 48.0989C35.1155 48.1062 35.1031 48.1117 35.087 48.1154C35.0674 48.1228 35.046 48.1311 35.0228 48.1403C34.9996 48.1476 34.98 48.1513 34.964 48.1513C34.9408 48.1513 34.9247 48.1421 34.9158 48.1237C34.9087 48.1053 34.9051 48.0961 34.9051 48.0961V48.0934C34.9051 48.0731 34.9051 48.052 34.9051 48.0299C34.9069 48.006 34.9212 47.9858 34.9479 47.9692H34.9506C34.9542 47.9692 34.9595 47.9701 34.9667 47.972C34.9756 47.9738 34.9809 47.9747 34.9827 47.9747C34.9898 47.9711 34.9988 47.9655 35.0095 47.9582C35.0201 47.9508 35.0317 47.9471 35.0442 47.9471H35.0469C35.0772 47.9471 35.1093 47.9462 35.1432 47.9444C35.1771 47.9425 35.2056 47.9389 35.2288 47.9333C35.2395 47.9186 35.2493 47.9048 35.2582 47.892C35.2671 47.8773 35.2707 47.8681 35.2689 47.8644C35.2707 47.8552 35.2769 47.8423 35.2876 47.8258C35.3001 47.8074 35.309 47.7945 35.3144 47.7871C35.3179 47.7779 35.3251 47.7678 35.3358 47.7568C35.3483 47.7439 35.3545 47.7356 35.3545 47.732V47.7292C35.3563 47.7255 35.3572 47.7191 35.3572 47.7099V47.6878C35.3572 47.6786 35.3581 47.6694 35.3598 47.6602C35.3634 47.6492 35.3688 47.64 35.3759 47.6326C35.3884 47.6198 35.3982 47.6041 35.4053 47.5857C35.4142 47.5673 35.4303 47.5508 35.4535 47.5361C35.4695 47.525 35.4847 47.5195 35.4989 47.5195C35.5239 47.5195 35.5426 47.5306 35.5551 47.5526C35.5676 47.5729 35.5774 47.5894 35.5845 47.6023C35.5863 47.6097 35.5952 47.617 35.6113 47.6244C35.6291 47.6299 35.638 47.6409 35.638 47.6575C35.638 47.6722 35.6273 47.6897 35.6059 47.7099C35.5988 47.7191 35.5863 47.7338 35.5685 47.754C35.5506 47.7724 35.5346 47.789 35.5203 47.8037C35.5078 47.8166 35.4856 47.8469 35.4535 47.8947C35.482 47.8929 35.5114 47.8883 35.5417 47.8809C35.572 47.8736 35.6032 47.8699 35.6353 47.8699C35.6443 47.8717 35.6594 47.8699 35.6808 47.8644C35.7022 47.857 35.7218 47.8533 35.7397 47.8533C35.7468 47.8533 35.7521 47.8589 35.7557 47.8699C35.7611 47.8791 35.7646 47.8864 35.7664 47.892C35.7593 47.903 35.7441 47.9131 35.7209 47.9223C35.6995 47.9315 35.6835 47.937 35.6728 47.9389C35.6657 47.9389 35.6469 47.9416 35.6166 47.9471C35.5863 47.9527 35.5551 47.9591 35.523 47.9665C35.4927 47.972 35.4713 47.9747 35.4588 47.9747C35.4481 47.9729 35.4374 47.9793 35.4267 47.994C35.416 48.0069 35.4035 48.0143 35.3893 48.0161C35.3786 48.0308 35.367 48.0419 35.3545 48.0492C35.3438 48.0547 35.334 48.0639 35.3251 48.0768C35.3019 48.1117 35.2823 48.1421 35.2662 48.1678C35.2502 48.1918 35.2386 48.2083 35.2315 48.2175C35.2225 48.2285 35.2101 48.246 35.194 48.2699C35.1797 48.292 35.1646 48.315 35.1485 48.3389C35.1325 48.3628 35.1191 48.3803 35.1084 48.3913C35.1013 48.4023 35.0897 48.4207 35.0736 48.4465C35.0576 48.4704 35.0442 48.4879 35.0335 48.4989C35.0246 48.5118 35.0175 48.5228 35.0121 48.532C35.0086 48.5412 35.0014 48.5559 34.9907 48.5761V48.5734C34.9818 48.5899 34.972 48.612 34.9613 48.6396C34.9506 48.6653 34.9435 48.6902 34.9399 48.7141C34.9381 48.7233 34.9363 48.7334 34.9346 48.7444C34.9346 48.7555 34.9346 48.7656 34.9346 48.7748C34.9346 48.7987 34.9354 48.8208 34.9372 48.841C34.9408 48.8594 34.9426 48.8759 34.9426 48.8906C34.9426 48.9164 34.9319 48.9394 34.9105 48.9596C34.8909 48.978 34.8713 48.9872 34.8516 48.9872ZM35.7691 47.8892C35.7691 47.8892 35.7682 47.8901 35.7664 47.892L35.7691 47.8864V47.8892Z" fill="#8C5AFF"/>
<path d="M30.8429 48.968C30.8269 48.9643 30.8188 48.945 30.8188 48.9101C30.8188 48.8494 30.8358 48.7841 30.8697 48.7142C30.8804 48.7013 30.8893 48.6885 30.8964 48.6756C30.9053 48.6627 30.9098 48.648 30.9098 48.6314C30.9098 48.6204 30.9151 48.6039 30.9258 48.5818C30.9365 48.5579 30.9481 48.533 30.9606 48.5073C30.9749 48.4797 30.9874 48.4558 30.9981 48.4356C31.0088 48.4153 31.0141 48.4034 31.0141 48.3997C31.0177 48.3905 31.0212 48.3804 31.0248 48.3694C31.0302 48.3565 31.0328 48.35 31.0328 48.35C31.0507 48.3225 31.0721 48.2884 31.097 48.248C31.1238 48.2075 31.155 48.1606 31.1906 48.1073H31.188C31.2129 48.065 31.2352 48.0291 31.2548 47.9997C31.2762 47.9684 31.2958 47.9436 31.3137 47.9252C31.3707 47.8663 31.4358 47.8369 31.5089 47.8369C31.5535 47.8369 31.5758 47.8571 31.5758 47.8976C31.5758 47.9326 31.5553 47.9684 31.5143 48.0052C31.4982 48.0199 31.4813 48.0346 31.4635 48.0493C31.4474 48.0622 31.4323 48.076 31.418 48.0907C31.4037 48.1073 31.3841 48.1321 31.3592 48.1652C31.3342 48.1965 31.3048 48.236 31.2709 48.2838C31.2673 48.2894 31.2575 48.3031 31.2415 48.3252C31.2272 48.3454 31.212 48.3684 31.196 48.3942C31.1817 48.4181 31.171 48.4392 31.1639 48.4576C31.1585 48.4742 31.1621 48.4815 31.1746 48.4797C31.1996 48.4429 31.2611 48.3887 31.3592 48.3169C31.4002 48.2875 31.434 48.2581 31.4608 48.2287C31.4875 48.1992 31.5143 48.1753 31.541 48.1569C31.55 48.1533 31.5598 48.1477 31.5705 48.1404C31.5812 48.133 31.5927 48.1229 31.6052 48.11H31.6079C31.6561 48.0843 31.7078 48.0558 31.763 48.0245C31.8183 47.9914 31.8763 47.9546 31.9369 47.9142C31.9423 47.9105 31.9494 47.9105 31.9583 47.9142C32.0385 47.8847 32.0938 47.87 32.1241 47.87C32.1545 47.87 32.1696 47.8838 32.1696 47.9114C32.1696 47.9169 32.1669 47.9307 32.1616 47.9528C32.158 47.9749 32.15 47.996 32.1375 48.0162C32.1268 48.0365 32.1108 48.0466 32.0894 48.0466H31.9717C31.9128 48.0705 31.8495 48.0962 31.7818 48.1238C31.7158 48.1496 31.6471 48.1891 31.5758 48.2425H31.5731C31.311 48.4209 31.1149 48.6094 30.9847 48.808C30.9829 48.8172 30.9793 48.8282 30.974 48.8411C30.9686 48.854 30.9624 48.8696 30.9553 48.888C30.9285 48.9358 30.8911 48.9625 30.8429 48.968Z" fill="#8C5AFF"/>
<path d="M29.0457 48.9654C29.0172 48.9654 28.9949 48.9609 28.9789 48.9517C28.9628 48.9406 28.9477 48.9296 28.9334 48.9185C28.9013 48.891 28.8853 48.8404 28.8853 48.7668C28.8853 48.7135 28.8951 48.6528 28.9147 48.5847C28.9343 48.5148 28.9664 48.4422 29.011 48.3668V48.3696C29.0306 48.3328 29.0502 48.296 29.0698 48.2592C29.0912 48.2224 29.1135 48.1866 29.1367 48.1516C29.1438 48.1443 29.1509 48.1397 29.1581 48.1378C29.1652 48.1341 29.1706 48.1305 29.1741 48.1268C29.1741 48.1194 29.1759 48.1093 29.1795 48.0964C29.1848 48.0817 29.1911 48.0716 29.1982 48.0661C29.2303 48.0219 29.2669 47.9888 29.3079 47.9668C29.3489 47.9447 29.381 47.9263 29.4042 47.9116H29.4015C29.4122 47.9061 29.4247 47.9033 29.4389 47.9033C29.4746 47.9033 29.5165 47.9171 29.5646 47.9447C29.5718 47.9447 29.5789 47.9438 29.586 47.9419C29.595 47.9383 29.6039 47.9364 29.6128 47.9364C29.6306 47.9364 29.6485 47.9429 29.6663 47.9557C29.6859 47.9686 29.6939 47.9888 29.6904 48.0164C29.6886 48.0219 29.6877 48.0265 29.6877 48.0302C29.6877 48.0339 29.6877 48.0376 29.6877 48.0413C29.6877 48.0615 29.6948 48.0716 29.7091 48.0716C29.7162 48.0716 29.7233 48.0707 29.7305 48.0688C29.7376 48.067 29.7447 48.0661 29.7519 48.0661C29.7715 48.0661 29.7991 48.0633 29.8348 48.0578C29.8705 48.0505 29.9043 48.044 29.9364 48.0385C29.9703 48.0311 29.9935 48.0275 30.006 48.0275C30.0131 48.033 30.0167 48.0394 30.0167 48.0468C30.0167 48.0541 30.0131 48.0624 30.006 48.0716C30.0006 48.0808 29.9944 48.0872 29.9873 48.0909C29.9873 48.0909 29.9757 48.0946 29.9525 48.102C29.9311 48.1075 29.9043 48.1148 29.8722 48.124C29.8401 48.1332 29.8081 48.1424 29.776 48.1516C29.7456 48.159 29.7216 48.1636 29.7037 48.1654L29.677 48.1682C29.6752 48.1902 29.6699 48.2141 29.6609 48.2399C29.652 48.2656 29.6422 48.2941 29.6315 48.3254C29.6279 48.3346 29.6253 48.3466 29.6235 48.3613C29.6217 48.3742 29.6181 48.3879 29.6128 48.4027C29.6003 48.4247 29.586 48.4468 29.57 48.4689C29.5539 48.4909 29.5388 48.5139 29.5245 48.5378C29.5138 48.5562 29.5022 48.5765 29.4898 48.5985C29.4791 48.6188 29.4657 48.6399 29.4496 48.662C29.414 48.7098 29.3721 48.7576 29.3239 48.8054C29.2776 48.8514 29.2294 48.89 29.1795 48.9213C29.1313 48.9507 29.0868 48.9654 29.0457 48.9654ZM29.0698 48.8744C29.1055 48.8744 29.1545 48.8487 29.2169 48.7972C29.2811 48.7438 29.3409 48.6758 29.3961 48.593H29.3935C29.4077 48.5709 29.422 48.5452 29.4363 48.5158C29.4523 48.4863 29.4648 48.4615 29.4737 48.4413C29.4737 48.4413 29.4782 48.4358 29.4871 48.4247C29.4978 48.4137 29.5085 48.4017 29.5192 48.3889C29.5299 48.3742 29.5361 48.3631 29.5379 48.3558C29.5397 48.3521 29.5406 48.3475 29.5406 48.342C29.5406 48.3383 29.5397 48.3355 29.5379 48.3337C29.5379 48.33 29.5379 48.3245 29.5379 48.3171V48.3144C29.5486 48.2868 29.5575 48.262 29.5646 48.2399C29.5718 48.2178 29.5762 48.1985 29.578 48.182C29.5655 48.182 29.5459 48.181 29.5192 48.1792C29.4924 48.1774 29.4701 48.1755 29.4523 48.1737C29.4363 48.1718 29.4363 48.1709 29.4523 48.1709H29.4603C29.4603 48.1691 29.4523 48.1654 29.4363 48.1599C29.4202 48.1544 29.4077 48.1498 29.3988 48.1461C29.3935 48.1479 29.3881 48.1489 29.3828 48.1489C29.3738 48.1489 29.3667 48.147 29.3614 48.1433C29.3578 48.1397 29.3533 48.1406 29.348 48.1461C29.3409 48.1534 29.3364 48.1626 29.3346 48.1737C29.3328 48.1847 29.3257 48.1967 29.3132 48.2095L29.3105 48.2123C29.3105 48.2105 29.3061 48.2123 29.2972 48.2178C29.2883 48.2233 29.2847 48.2261 29.2865 48.2261L29.2838 48.2316C29.2802 48.2335 29.2776 48.239 29.2758 48.2482C29.2758 48.2555 29.2731 48.2638 29.2677 48.273C29.2499 48.3024 29.2303 48.3337 29.2089 48.3668C29.1893 48.3981 29.1706 48.4284 29.1527 48.4578V48.4551C29.1349 48.4882 29.1171 48.524 29.0992 48.5627C29.0814 48.6013 29.068 48.639 29.0591 48.6758C29.0591 48.685 29.0573 48.6942 29.0538 48.7034C29.052 48.7107 29.0511 48.7172 29.0511 48.7227V48.7254C29.0511 48.7457 29.0475 48.7631 29.0404 48.7779C29.0333 48.7926 29.0297 48.8073 29.0297 48.822C29.035 48.8349 29.0368 48.845 29.035 48.8523C29.0333 48.8579 29.0359 48.8625 29.0431 48.8661C29.052 48.8716 29.0609 48.8744 29.0698 48.8744Z" fill="#8C5AFF"/>
<path d="M26.9477 48.9734C26.9406 48.9734 26.9344 48.9725 26.929 48.9706C26.9237 48.9688 26.9192 48.9679 26.9156 48.9679C26.8924 48.9642 26.8809 48.9403 26.8809 48.8962C26.8809 48.8796 26.8826 48.8612 26.8862 48.841C26.8916 48.8189 26.8996 48.795 26.9103 48.7693V48.772C26.9121 48.7628 26.9156 48.7555 26.921 48.7499C26.9263 48.7426 26.9281 48.7371 26.9263 48.7334C26.9263 48.7242 26.9317 48.7067 26.9424 48.681C26.9549 48.6534 26.9611 48.6387 26.9611 48.6368V48.6341C26.9647 48.6249 26.9718 48.6102 26.9825 48.5899C26.9932 48.5679 27.0003 48.5532 27.0039 48.5458C27.0182 48.5164 27.0289 48.498 27.036 48.4906C27.0431 48.4833 27.0494 48.4777 27.0547 48.4741C27.0619 48.4704 27.0699 48.4594 27.0788 48.441L27.0815 48.4382C27.0815 48.4382 27.0824 48.4373 27.0841 48.4354C27.0859 48.4318 27.0877 48.4281 27.0895 48.4244C27.0824 48.4262 27.0752 48.429 27.0681 48.4327C27.0627 48.4345 27.0547 48.4373 27.044 48.441H27.0413C27.0324 48.441 27.0199 48.4373 27.0039 48.4299C26.9878 48.4207 26.978 48.4115 26.9745 48.4023C26.9709 48.3913 26.9691 48.383 26.9691 48.3775C26.9691 48.3536 26.978 48.3279 26.9959 48.3003C27.0137 48.2708 27.0315 48.2524 27.0494 48.2451H27.052C27.061 48.2451 27.0726 48.2414 27.0868 48.2341C27.1011 48.2267 27.1136 48.2212 27.1243 48.2175H27.1296C27.135 48.2175 27.1385 48.2147 27.1403 48.2092C27.1421 48.2019 27.1492 48.1973 27.1617 48.1954C27.1617 48.1954 27.1733 48.1908 27.1965 48.1816C27.2214 48.1724 27.2428 48.1651 27.2607 48.1596C27.2678 48.1485 27.2749 48.1384 27.2821 48.1292C27.2892 48.12 27.2919 48.1145 27.2901 48.1127C27.2972 48.0961 27.3061 48.0805 27.3168 48.0658C27.3293 48.0492 27.3418 48.0336 27.3543 48.0189H27.3516C27.3891 47.9619 27.4319 47.9021 27.48 47.8395C27.5282 47.777 27.5825 47.7099 27.6432 47.6382C27.7074 47.5628 27.7707 47.5076 27.8331 47.4726C27.8973 47.4358 27.9552 47.4147 28.0069 47.4092C28.0373 47.4092 28.0711 47.4165 28.1086 47.4312C28.146 47.446 28.1728 47.4607 28.1888 47.4754C28.2209 47.5048 28.2477 47.5379 28.2691 47.5747C28.2905 47.6115 28.3012 47.6455 28.3012 47.6768C28.3012 47.6952 28.2976 47.7117 28.2905 47.7264V47.7292C28.2833 47.7421 28.2717 47.7485 28.2557 47.7485C28.2432 47.7485 28.2316 47.7448 28.2209 47.7375C28.212 47.7283 28.2075 47.7172 28.2075 47.7044C28.2058 47.6768 28.1924 47.6474 28.1674 47.6161C28.1442 47.5848 28.1211 47.5701 28.0979 47.5719C28.0907 47.5701 28.0792 47.5692 28.0631 47.5692C28.0292 47.5692 27.9918 47.5793 27.9508 47.5995C27.9115 47.6198 27.8679 47.6556 27.8197 47.7071C27.7823 47.7476 27.7519 47.7779 27.7288 47.7982C27.7056 47.8166 27.6851 47.8313 27.6672 47.8423C27.6512 47.8515 27.6351 47.8616 27.6191 47.8727C27.6048 47.8818 27.587 47.8966 27.5656 47.9168C27.5585 47.9352 27.5433 47.9619 27.5201 47.9968C27.4969 48.0299 27.472 48.063 27.4452 48.0961C27.4542 48.0924 27.4622 48.0897 27.4693 48.0878C27.4782 48.0842 27.4871 48.0823 27.4961 48.0823C27.5068 48.0823 27.5246 48.0814 27.5496 48.0796C27.5745 48.0759 27.5932 48.074 27.6057 48.074V48.0685C27.6057 48.0593 27.6102 48.0538 27.6191 48.052H27.6164C27.636 48.0465 27.6557 48.0419 27.6753 48.0382C27.6967 48.0327 27.7181 48.0271 27.7395 48.0216C27.784 48.0124 27.8286 48.0014 27.8732 47.9885C27.9196 47.9756 27.965 47.9665 28.0096 47.9609C28.0239 47.9609 28.0417 47.9573 28.0631 47.9499C28.0845 47.9425 28.1032 47.9389 28.1193 47.9389C28.13 47.9389 28.1389 47.9389 28.146 47.9389C28.1532 47.937 28.163 47.9361 28.1754 47.9361C28.1897 47.9361 28.2031 47.9398 28.2156 47.9471C28.2281 47.9545 28.2352 47.9646 28.237 47.9775C28.2352 47.9922 28.2289 47.9996 28.2182 47.9996C28.2093 47.9996 28.1977 47.9996 28.1835 47.9996C28.1763 47.9996 28.163 48.0005 28.1434 48.0023C28.1237 48.0042 28.097 48.0088 28.0631 48.0161C28.0381 48.0216 28.0212 48.0253 28.0123 48.0271C28.0052 48.029 27.9971 48.0308 27.9882 48.0327C27.9811 48.0345 27.9641 48.0391 27.9374 48.0465C27.8679 48.063 27.793 48.0869 27.7127 48.1182C27.6343 48.1495 27.5451 48.1862 27.4452 48.2285C27.4185 48.2396 27.3891 48.2561 27.357 48.2782C27.3249 48.2984 27.2937 48.3196 27.2634 48.3416C27.2473 48.3711 27.2339 48.3987 27.2232 48.4244C27.2143 48.4483 27.2027 48.4722 27.1885 48.4961H27.1858C27.1715 48.5164 27.1564 48.544 27.1403 48.5789C27.126 48.6138 27.1118 48.6497 27.0975 48.6865C27.085 48.7214 27.0752 48.7509 27.0681 48.7748C27.061 48.7987 27.0583 48.8097 27.0601 48.8079C27.0636 48.806 27.0654 48.807 27.0654 48.8106C27.0672 48.8125 27.0663 48.8152 27.0627 48.8189C27.0556 48.8281 27.0503 48.841 27.0467 48.8575C27.0431 48.8741 27.0387 48.8879 27.0333 48.8989C27.0262 48.91 27.0182 48.9201 27.0092 48.9293C27.0021 48.9366 26.9959 48.9421 26.9905 48.9458C26.9834 48.9569 26.9763 48.9642 26.9691 48.9679C26.962 48.9716 26.9549 48.9734 26.9477 48.9734Z" fill="#8C5AFF"/>
<path d="M22.7726 48.9677C22.7566 48.9622 22.7485 48.9429 22.7485 48.9098C22.7485 48.8895 22.7512 48.8665 22.7566 48.8408C22.7637 48.815 22.7735 48.7847 22.786 48.7497V48.758C22.7895 48.758 22.7931 48.7516 22.7967 48.7387C22.8002 48.7258 22.8011 48.7185 22.7994 48.7166C22.8011 48.7056 22.8083 48.6937 22.8208 48.6808C22.835 48.6661 22.8413 48.6578 22.8395 48.6559V48.6532C22.843 48.6458 22.843 48.6412 22.8395 48.6394C22.8359 48.6376 22.8368 48.6302 22.8422 48.6173C22.8618 48.575 22.8778 48.5465 22.8903 48.5318C22.9028 48.5153 22.9162 48.4923 22.9304 48.4628V48.4684C22.9322 48.4684 22.934 48.461 22.9358 48.4463C22.9393 48.4316 22.9438 48.4196 22.9491 48.4104V48.4159C22.9509 48.4086 22.9545 48.4021 22.9598 48.3966C22.967 48.3893 22.9714 48.3847 22.9732 48.3828C22.9893 48.3534 23 48.3313 23.0053 48.3166C23.0124 48.3019 23.0196 48.2881 23.0267 48.2752C23.0356 48.2605 23.0499 48.2403 23.0695 48.2145H23.0668C23.074 48.2053 23.0838 48.1897 23.0963 48.1676C23.1105 48.1456 23.123 48.1272 23.1337 48.1125C23.1462 48.0959 23.1524 48.0913 23.1524 48.0987V48.1014C23.1524 48.107 23.1596 48.0987 23.1738 48.0766C23.1881 48.0545 23.205 48.0279 23.2246 47.9966C23.2443 47.9635 23.2621 47.9341 23.2781 47.9083C23.2942 47.8807 23.304 47.8642 23.3076 47.8587V47.8614C23.3111 47.8559 23.3183 47.844 23.329 47.8256C23.3414 47.8053 23.3486 47.7943 23.3504 47.7925H23.3477C23.3655 47.763 23.3771 47.741 23.3825 47.7262C23.3896 47.7097 23.3967 47.6941 23.4039 47.6793C23.4128 47.6628 23.4279 47.6407 23.4493 47.6131L23.5429 47.489C23.5519 47.4798 23.5626 47.4642 23.575 47.4421C23.5893 47.4182 23.6036 47.4025 23.6178 47.3952C23.6428 47.3823 23.6731 47.3704 23.7088 47.3593C23.7462 47.3483 23.7792 47.3428 23.8077 47.3428C23.8274 47.3428 23.8434 47.3465 23.8559 47.3538C23.8702 47.3593 23.8782 47.3713 23.88 47.3897C23.8782 47.4173 23.8684 47.4494 23.8505 47.4862C23.8327 47.5212 23.806 47.5561 23.7703 47.5911C23.7489 47.6095 23.723 47.6223 23.6927 47.6297C23.6624 47.6352 23.641 47.6481 23.6285 47.6683H23.6312C23.6116 47.6977 23.5866 47.7327 23.5563 47.7731C23.5278 47.8118 23.5064 47.8412 23.4921 47.8614C23.4779 47.8798 23.4618 47.8964 23.444 47.9111C23.4261 47.9258 23.4119 47.9423 23.4012 47.9607C23.3744 47.9975 23.3548 48.0288 23.3423 48.0545C23.3299 48.0803 23.3174 48.106 23.3049 48.1318C23.2942 48.1557 23.2746 48.1833 23.246 48.2145C23.1943 48.2716 23.1596 48.3185 23.1417 48.3552C23.1239 48.3902 23.1132 48.427 23.1096 48.4656C23.1168 48.4564 23.1248 48.4481 23.1337 48.4408C23.1729 48.4003 23.2273 48.3562 23.2969 48.3083C23.3682 48.2605 23.4413 48.2136 23.5162 48.1676H23.5215C23.5233 48.1676 23.5322 48.163 23.5483 48.1539C23.5661 48.1447 23.5848 48.1336 23.6045 48.1207C23.6259 48.106 23.6437 48.0941 23.658 48.0849C23.6722 48.0738 23.6767 48.0683 23.6713 48.0683H23.6687C23.6883 48.0555 23.7222 48.0407 23.7703 48.0242C23.8505 47.9966 23.9201 47.9828 23.9789 47.9828C24.0182 47.9828 24.0467 47.9892 24.0645 48.0021C24.0806 48.0187 24.0886 48.0417 24.0886 48.0711C24.0886 48.0932 24.0832 48.1198 24.0725 48.1511V48.1456C24.0708 48.1456 24.0672 48.1529 24.0618 48.1676C24.0565 48.1805 24.0503 48.1916 24.0431 48.2008C24.0413 48.2081 24.0351 48.2201 24.0244 48.2366C24.0137 48.2513 24.0084 48.2587 24.0084 48.2587V48.2559C23.9994 48.278 23.9905 48.2946 23.9816 48.3056C23.9727 48.3148 23.962 48.3277 23.9495 48.3442C23.9335 48.3663 23.9121 48.3985 23.8853 48.4408C23.8603 48.4831 23.8354 48.5272 23.8104 48.5732C23.7872 48.6192 23.7712 48.6624 23.7623 48.7028C23.7605 48.7157 23.7525 48.7323 23.7382 48.7525C23.7257 48.7727 23.7204 48.7875 23.7222 48.7966V48.7994C23.7222 48.8031 23.7257 48.8077 23.7329 48.8132C23.74 48.8187 23.7444 48.8233 23.7462 48.827C23.7516 48.8344 23.7542 48.8435 23.7542 48.8546C23.7542 48.8711 23.7471 48.8877 23.7329 48.9042C23.7186 48.9208 23.6954 48.9291 23.6633 48.9291C23.6401 48.9291 23.625 48.9236 23.6178 48.9125C23.6125 48.9015 23.6054 48.8895 23.5964 48.8767V48.8491L23.5857 48.8518H23.5804C23.5733 48.8518 23.567 48.8472 23.5617 48.838V48.8353C23.5617 48.8279 23.5599 48.8178 23.5563 48.8049C23.5545 48.7902 23.5536 48.7792 23.5536 48.7718C23.5536 48.7589 23.559 48.7396 23.5697 48.7139C23.5804 48.6881 23.592 48.6624 23.6045 48.6366C23.6169 48.6091 23.6259 48.5888 23.6312 48.5759C23.6383 48.5539 23.6562 48.5235 23.6847 48.4849C23.7132 48.4463 23.7436 48.4067 23.7756 48.3663C23.8077 48.324 23.8318 48.289 23.8479 48.2614C23.8568 48.2449 23.863 48.2302 23.8666 48.2173C23.8702 48.2026 23.8719 48.1897 23.8719 48.1787C23.8719 48.1585 23.8657 48.1437 23.8532 48.1345C23.8425 48.1235 23.8283 48.1171 23.8104 48.1152C23.8033 48.1152 23.7908 48.1171 23.773 48.1207C23.7569 48.1226 23.74 48.1272 23.7222 48.1345C23.715 48.1364 23.7008 48.1437 23.6794 48.1566C23.6597 48.1695 23.641 48.1814 23.6232 48.1925C23.6071 48.2035 23.6018 48.209 23.6071 48.209H23.6098C23.5955 48.2182 23.5822 48.2265 23.5697 48.2339C23.559 48.2394 23.5447 48.2486 23.5269 48.2614C23.5215 48.267 23.5073 48.2771 23.4841 48.2918C23.4627 48.3065 23.4404 48.3212 23.4172 48.3359C23.3958 48.3506 23.3807 48.3608 23.3718 48.3663C23.2844 48.4306 23.2006 48.5005 23.1203 48.5759C23.0401 48.6495 22.9714 48.7268 22.9144 48.8077C22.9072 48.8169 22.9019 48.8298 22.8983 48.8463C22.8948 48.8629 22.8903 48.8767 22.8849 48.8877C22.8778 48.9006 22.8707 48.9098 22.8636 48.9153C22.8564 48.919 22.8511 48.9226 22.8475 48.9263C22.8332 48.9447 22.819 48.9567 22.8047 48.9622C22.7922 48.9659 22.7815 48.9677 22.7726 48.9677Z" fill="#8C5AFF"/>
<path d="M21.0265 49.0095C21.0211 49.0095 21.0095 49.0049 20.9917 48.9957C20.9757 48.9884 20.9587 48.9801 20.9409 48.9709C20.9248 48.9635 20.9124 48.9598 20.9034 48.9598H20.9008C20.8776 48.9598 20.8606 48.9525 20.8499 48.9378C20.841 48.9212 20.8348 48.9019 20.8312 48.8798C20.8277 48.8578 20.8241 48.8394 20.8205 48.8247C20.8152 48.8026 20.8125 48.7796 20.8125 48.7557C20.8125 48.6729 20.8392 48.5773 20.8927 48.4688C20.948 48.3584 21.0211 48.2499 21.1121 48.1433C21.1763 48.0678 21.2414 48.009 21.3073 47.9667C21.3733 47.9244 21.433 47.9005 21.4865 47.895C21.5151 47.8913 21.5445 47.8986 21.5748 47.917C21.6051 47.9354 21.6265 47.9446 21.639 47.9446H21.6417C21.6916 47.9446 21.7255 47.9621 21.7433 47.997C21.7612 48.0301 21.7701 48.0623 21.7701 48.0936C21.7701 48.1212 21.7638 48.1479 21.7513 48.1736C21.7389 48.192 21.7192 48.2012 21.6925 48.2012C21.6586 48.2012 21.6363 48.1911 21.6256 48.1708C21.6131 48.1414 21.59 48.1184 21.5561 48.1019C21.5222 48.0853 21.4901 48.077 21.4598 48.077C21.4295 48.077 21.3965 48.0908 21.3608 48.1184C21.3269 48.146 21.2922 48.1791 21.2565 48.2177C21.1477 48.3336 21.072 48.4421 21.0292 48.5433C20.9881 48.6426 20.9676 48.7208 20.9676 48.7778C20.9676 48.7851 20.9676 48.7925 20.9676 48.7998C20.9694 48.8054 20.9703 48.8109 20.9703 48.8164V48.8192C20.9703 48.832 20.9819 48.8458 21.0051 48.8605C21.0283 48.8734 21.0541 48.878 21.0827 48.8743C21.1308 48.8688 21.1709 48.8605 21.203 48.8495C21.2351 48.8385 21.2761 48.8182 21.3261 48.7888C21.3278 48.7888 21.3368 48.7842 21.3528 48.775C21.3689 48.7658 21.3849 48.7566 21.4009 48.7474C21.4188 48.7364 21.4286 48.7309 21.4304 48.7309C21.45 48.7198 21.4607 48.7143 21.4625 48.7143C21.466 48.7143 21.4714 48.7125 21.4785 48.7088C21.4857 48.7033 21.5044 48.6904 21.5347 48.6702C21.5668 48.6481 21.5918 48.6371 21.6096 48.6371C21.6221 48.6371 21.6283 48.6417 21.6283 48.6509C21.6283 48.6582 21.6221 48.6693 21.6096 48.684C21.5989 48.6987 21.5793 48.7162 21.5507 48.7364C21.5151 48.7603 21.4857 48.7787 21.4625 48.7916C21.4411 48.8044 21.4215 48.8173 21.4036 48.8302C21.3858 48.8412 21.3662 48.8578 21.3448 48.8798L21.3421 48.8826C21.3385 48.8826 21.3287 48.8863 21.3127 48.8936C21.2984 48.901 21.2842 48.9084 21.2699 48.9157C21.2556 48.9212 21.2476 48.9249 21.2458 48.9267C21.2387 48.9323 21.22 48.9424 21.1896 48.9571C21.1611 48.97 21.1308 48.9819 21.0987 48.993C21.0666 49.004 21.0425 49.0095 21.0265 49.0095Z" fill="#8C5AFF"/>
<path d="M18.654 49.0009C18.6326 49.0009 18.6148 48.9945 18.6005 48.9816C18.5862 48.9687 18.5791 48.9485 18.5791 48.9209C18.5791 48.9136 18.58 48.9062 18.5818 48.8988C18.5818 48.8915 18.5827 48.8841 18.5845 48.8768C18.5987 48.8161 18.6228 48.7444 18.6567 48.6616C18.6906 48.5788 18.7351 48.4905 18.7904 48.3968C18.8475 48.303 18.9179 48.211 19.0017 48.1209C19.0641 48.0547 19.131 48.0078 19.2023 47.9802C19.2737 47.9507 19.3494 47.936 19.4297 47.936H19.4324C19.493 47.936 19.5331 47.9526 19.5527 47.9857C19.5723 48.017 19.5821 48.0491 19.5821 48.0823C19.5821 48.1209 19.5768 48.1512 19.5661 48.1733L19.5634 48.176C19.5563 48.1834 19.5474 48.1871 19.5367 48.1871C19.5278 48.1871 19.5188 48.1834 19.5099 48.176C19.5028 48.1687 19.4992 48.1586 19.4992 48.1457C19.4992 48.1273 19.4957 48.1117 19.4885 48.0988C19.4832 48.0859 19.476 48.0749 19.4671 48.0657C19.4653 48.062 19.4609 48.0602 19.4538 48.0602C19.4466 48.0583 19.4386 48.0574 19.4297 48.0574H19.427C19.4217 48.0574 19.4163 48.0565 19.411 48.0547C19.4056 48.051 19.4003 48.0491 19.3949 48.0491C19.3271 48.0491 19.2433 48.0979 19.1435 48.1954C19.0418 48.2984 18.9661 48.3876 18.9161 48.463C18.8662 48.5384 18.8314 48.6037 18.8118 48.6588C18.794 48.7122 18.7806 48.76 18.7717 48.8023C18.7699 48.817 18.7744 48.8244 18.7851 48.8244C18.8047 48.8244 18.8287 48.8152 18.8573 48.7968C18.8876 48.7784 18.9188 48.7563 18.9509 48.7306C18.983 48.7048 19.0142 48.6791 19.0445 48.6533C19.0748 48.6257 19.0989 48.6037 19.1167 48.5871C19.1256 48.5779 19.1337 48.5715 19.1408 48.5678C19.1497 48.5641 19.1569 48.5595 19.1622 48.554C19.1711 48.5466 19.1774 48.5393 19.1809 48.5319C19.1863 48.5246 19.1925 48.5181 19.1996 48.5126C19.2638 48.4556 19.3156 48.4105 19.3548 48.3774C19.394 48.3425 19.4243 48.3149 19.4457 48.2947C19.4689 48.2744 19.4885 48.257 19.5046 48.2423C19.5278 48.2183 19.5536 48.2064 19.5821 48.2064C19.6232 48.2064 19.649 48.2294 19.6597 48.2754C19.6668 48.3011 19.6606 48.3195 19.641 48.3305C19.6214 48.3397 19.6071 48.3508 19.5982 48.3636C19.5839 48.382 19.5688 48.4096 19.5527 48.4464C19.5367 48.4814 19.5153 48.5237 19.4885 48.5733C19.4725 48.6046 19.4582 48.6395 19.4457 48.6781C19.435 48.7149 19.4315 48.7425 19.435 48.7609L19.4805 48.7306C19.5037 48.7195 19.5286 48.7103 19.5554 48.703C19.5821 48.6938 19.6044 48.6827 19.6223 48.6699C19.6347 48.6625 19.6454 48.6588 19.6544 48.6588C19.6686 48.6588 19.6758 48.6653 19.6758 48.6781C19.6758 48.6929 19.6651 48.7076 19.6437 48.7223C19.5919 48.7609 19.5509 48.7885 19.5206 48.805C19.4903 48.8198 19.4582 48.8446 19.4243 48.8795C19.4172 48.8869 19.402 48.9044 19.3789 48.932C19.3575 48.9577 19.3423 48.9733 19.3334 48.9789C19.3263 48.9825 19.3182 48.9844 19.3093 48.9844C19.3022 48.9862 19.295 48.9871 19.2879 48.9871C19.263 48.9871 19.2478 48.9844 19.2424 48.9789C19.2389 48.9752 19.2335 48.9715 19.2264 48.9678C19.221 48.966 19.2166 48.9605 19.213 48.9513C19.2095 48.9366 19.2077 48.9237 19.2077 48.9126C19.2077 48.8795 19.2157 48.8409 19.2317 48.7968C19.2496 48.7508 19.2728 48.7002 19.3013 48.645C19.3245 48.5991 19.3414 48.5632 19.3521 48.5374C19.3628 48.5117 19.3708 48.4905 19.3762 48.474C19.3815 48.4556 19.3878 48.4381 19.3949 48.4216C19.3699 48.4455 19.3441 48.4703 19.3173 48.4961C19.2906 48.5218 19.2594 48.5503 19.2237 48.5816C19.2184 48.5853 19.2112 48.5908 19.2023 48.5981C19.1934 48.6037 19.1872 48.6073 19.1836 48.6092L19.1114 48.6781C19.0615 48.7186 19.0169 48.7563 18.9776 48.7913C18.9384 48.8262 18.8983 48.8593 18.8573 48.8906C18.8163 48.9218 18.7672 48.954 18.7102 48.9871C18.6888 48.9963 18.67 49.0009 18.654 49.0009Z" fill="#8C5AFF"/>
<path d="M16.8071 49.0394C16.8017 49.0394 16.7902 49.0357 16.7723 49.0284C16.7545 49.0229 16.7358 49.0174 16.7162 49.0118C16.6965 49.0063 16.6823 49.0036 16.6734 49.0036H16.6707C16.6368 49.0036 16.6109 48.9898 16.5931 48.9622C16.5771 48.9327 16.5664 48.9061 16.561 48.8822C16.5592 48.873 16.5574 48.8638 16.5557 48.8546C16.5557 48.8435 16.5557 48.8325 16.5557 48.8215C16.5557 48.7608 16.5699 48.6918 16.5985 48.6146C16.627 48.5373 16.6653 48.4573 16.7135 48.3746C16.7634 48.2918 16.8196 48.2145 16.882 48.1428C16.9462 48.0674 17.0113 48.0086 17.0772 47.9663C17.1432 47.924 17.203 47.9 17.2565 47.8945C17.285 47.8945 17.3144 47.9028 17.3447 47.9194C17.375 47.9359 17.3964 47.9442 17.4089 47.9442H17.4116C17.449 47.9442 17.474 47.9598 17.4865 47.9911C17.499 48.0224 17.5052 48.0536 17.5052 48.0849C17.5052 48.1033 17.5016 48.1226 17.4945 48.1428C17.4874 48.1631 17.4811 48.1796 17.4758 48.1925C17.4722 48.2054 17.4722 48.21 17.4758 48.2063L17.4785 48.2035C17.4588 48.2403 17.4366 48.278 17.4116 48.3166C17.3884 48.3534 17.3501 48.4021 17.2966 48.4628C17.2752 48.4867 17.2458 48.5107 17.2083 48.5346C17.1726 48.5566 17.1379 48.5769 17.104 48.5953C17.0701 48.6137 17.046 48.6265 17.0318 48.6339C17.0175 48.6412 16.9988 48.6449 16.9756 48.6449C16.9524 48.6449 16.9266 48.6422 16.898 48.6366C16.8713 48.6311 16.8481 48.6284 16.8285 48.6284C16.8178 48.6284 16.808 48.6293 16.7991 48.6311C16.7902 48.633 16.7839 48.6385 16.7803 48.6477C16.7518 48.6955 16.7375 48.7433 16.7375 48.7911C16.7375 48.8206 16.7438 48.8454 16.7563 48.8656C16.7705 48.884 16.7937 48.8932 16.8258 48.8932C16.8365 48.8932 16.8481 48.8923 16.8606 48.8904C16.8731 48.8886 16.8856 48.8849 16.898 48.8794C16.9283 48.8739 16.9497 48.8711 16.9622 48.8711C16.9747 48.8711 16.9881 48.8693 17.0024 48.8656C17.0184 48.8619 17.0443 48.8527 17.0799 48.838C17.1191 48.8215 17.1486 48.8095 17.1682 48.8022C17.1896 48.7948 17.2056 48.7884 17.2163 48.7829C17.2288 48.7773 17.2413 48.7709 17.2538 48.7635C17.2663 48.7562 17.2859 48.7452 17.3126 48.7304C17.3322 48.7194 17.3429 48.7139 17.3447 48.7139C17.3483 48.7139 17.3536 48.712 17.3608 48.7084C17.3679 48.7029 17.3866 48.69 17.4169 48.6697C17.449 48.6477 17.474 48.6366 17.4918 48.6366C17.5043 48.6366 17.5106 48.6412 17.5106 48.6504C17.5106 48.6578 17.5043 48.6688 17.4918 48.6835C17.4811 48.6983 17.4615 48.7157 17.433 48.736C17.4027 48.758 17.3679 48.7838 17.3287 48.8132C17.2912 48.8426 17.2565 48.8656 17.2244 48.8822C17.2137 48.884 17.2039 48.8886 17.1949 48.896C17.1878 48.9015 17.1771 48.9061 17.1628 48.9098L17.0131 48.976L17.0157 48.9732C17.0211 48.9677 17.0148 48.9677 16.997 48.9732C16.981 48.9787 16.9596 48.987 16.9328 48.998C16.9078 49.0091 16.8829 49.0183 16.8579 49.0256C16.8347 49.0348 16.8178 49.0394 16.8071 49.0394ZM16.9114 48.5649C16.9185 48.5649 16.9257 48.5649 16.9328 48.5649C16.9399 48.5631 16.9471 48.5612 16.9542 48.5594C16.9667 48.5484 16.9783 48.5401 16.989 48.5346C16.9997 48.529 17.0139 48.5199 17.0318 48.507C17.0496 48.4941 17.0746 48.4711 17.1067 48.438C17.1334 48.4104 17.1566 48.3911 17.1762 48.3801C17.1958 48.3672 17.2119 48.3534 17.2244 48.3387C17.2618 48.2854 17.2814 48.2449 17.2832 48.2173C17.2868 48.1897 17.2886 48.164 17.2886 48.1401C17.2672 48.1106 17.2475 48.0959 17.2297 48.0959C17.219 48.0959 17.203 48.1005 17.1816 48.1097C17.1512 48.1226 17.1263 48.1345 17.1067 48.1456C17.0888 48.1566 17.0621 48.1805 17.0264 48.2173C16.9854 48.2614 16.948 48.3047 16.9141 48.347C16.8802 48.3874 16.8535 48.4288 16.8338 48.4711C16.8321 48.4785 16.8294 48.4858 16.8258 48.4932C16.824 48.4987 16.8231 48.5033 16.8231 48.507C16.8231 48.5272 16.8321 48.5419 16.8499 48.5511C16.8677 48.5603 16.8882 48.5649 16.9114 48.5649Z" fill="#8C5AFF"/>
<path d="M13.5575 49.426C13.5361 49.426 13.5254 49.4076 13.5254 49.3708C13.5272 49.3506 13.5334 49.3111 13.5441 49.2522C13.5566 49.1952 13.578 49.1345 13.6083 49.0701C13.6226 49.0407 13.6404 49.0048 13.6618 48.9625C13.685 48.9184 13.7091 48.8733 13.734 48.8274C13.759 48.7795 13.7822 48.7372 13.8036 48.7005C13.825 48.6618 13.841 48.6333 13.8517 48.6149C13.8785 48.5726 13.9097 48.5239 13.9453 48.4687C13.981 48.4117 14.014 48.3602 14.0443 48.3142C14.0193 48.2885 14.0068 48.26 14.0068 48.2287C14.0068 48.1864 14.0247 48.1496 14.0603 48.1184C14.096 48.0852 14.1281 48.0687 14.1566 48.0687C14.1691 48.0687 14.1789 48.0715 14.1861 48.077V48.0797C14.1861 48.0797 14.187 48.0825 14.1887 48.088C14.1923 48.0917 14.1968 48.0954 14.2021 48.099C14.2199 48.0788 14.2351 48.0604 14.2476 48.0439C14.2618 48.0255 14.269 48.0163 14.269 48.0163C14.2922 47.9832 14.3207 47.9455 14.3546 47.9032C14.3885 47.8609 14.4232 47.8186 14.4589 47.7763C14.4946 47.734 14.5249 47.6981 14.5498 47.6687C14.557 47.6595 14.5659 47.6448 14.5766 47.6245C14.5891 47.6025 14.6015 47.5813 14.614 47.5611C14.6265 47.539 14.6372 47.5234 14.6461 47.5142C14.6604 47.5013 14.6764 47.4848 14.6943 47.4645C14.7121 47.4443 14.729 47.4305 14.7451 47.4231C14.7754 47.4084 14.8111 47.3946 14.8521 47.3818C14.8931 47.3689 14.9288 47.3624 14.9591 47.3624C14.9751 47.3624 14.9885 47.3698 14.9992 47.3845C15.0099 47.3992 15.0179 47.4103 15.0233 47.4176C15.0161 47.4397 15.0036 47.4746 14.9858 47.5225C14.9698 47.5684 14.9475 47.6052 14.9189 47.6328C14.894 47.6549 14.8628 47.6769 14.8253 47.699C14.7897 47.7193 14.7647 47.7413 14.7504 47.7652C14.7362 47.7873 14.7121 47.8121 14.6782 47.8397C14.6443 47.8655 14.6113 47.8894 14.5793 47.9114C14.5472 47.9335 14.5249 47.951 14.5124 47.9639C14.5052 47.9749 14.4892 47.996 14.4642 48.0273C14.4411 48.0567 14.4152 48.0898 14.3867 48.1266C14.3599 48.1634 14.3358 48.1956 14.3144 48.2232L14.3786 48.2977C14.4607 48.2977 14.532 48.2922 14.5926 48.2811C14.6533 48.2682 14.7032 48.2609 14.7424 48.2591C14.8441 48.2554 14.9421 48.2324 15.0366 48.1901C15.1329 48.1459 15.2203 48.0935 15.2988 48.0328C15.3772 47.9703 15.4405 47.9105 15.4887 47.8535C15.5368 47.7965 15.5698 47.7468 15.5876 47.7045C15.6055 47.6604 15.6126 47.5988 15.609 47.5197C15.6055 47.4222 15.5457 47.3477 15.4298 47.2962C15.3139 47.2447 15.1641 47.2144 14.9805 47.2052C14.9377 47.2034 14.8797 47.207 14.8066 47.2162C14.7335 47.2254 14.655 47.2411 14.5712 47.2631C14.4892 47.2852 14.4107 47.3146 14.3358 47.3514C14.261 47.3882 14.1994 47.4323 14.1513 47.4838C14.1049 47.5353 14.0817 47.5951 14.0817 47.6632C14.0817 47.6871 14.0889 47.7045 14.1031 47.7156C14.1174 47.7266 14.1308 47.7349 14.1433 47.7404C14.1575 47.7459 14.1647 47.7524 14.1647 47.7597C14.1647 47.7652 14.154 47.7753 14.1326 47.7901C14.1183 47.8029 14.0978 47.814 14.071 47.8232C14.0443 47.8305 14.0265 47.8342 14.0175 47.8342C13.9765 47.8342 13.9391 47.8333 13.9052 47.8314C13.8731 47.8278 13.8499 47.814 13.8357 47.7901V47.7873C13.8357 47.7432 13.8357 47.7137 13.8357 47.699C13.8374 47.6843 13.8401 47.6751 13.8437 47.6714C13.849 47.6678 13.8553 47.6622 13.8624 47.6549C13.8713 47.6457 13.8829 47.6273 13.8972 47.5997C13.9008 47.5923 13.9088 47.5813 13.9213 47.5666C13.9355 47.55 13.9489 47.5344 13.9614 47.5197C13.9739 47.505 13.981 47.4967 13.9828 47.4949C14.0523 47.4305 14.1326 47.3762 14.2235 47.3321C14.3144 47.2861 14.4072 47.2493 14.5017 47.2218C14.598 47.1923 14.6889 47.1712 14.7745 47.1583C14.8619 47.1436 14.9377 47.1362 15.0019 47.1362C15.0857 47.1362 15.1748 47.1482 15.2693 47.1721C15.3656 47.1942 15.4557 47.2264 15.5395 47.2687C15.6251 47.311 15.6946 47.3624 15.7481 47.4231C15.8016 47.482 15.8284 47.5473 15.8284 47.619C15.8284 47.676 15.807 47.7376 15.7642 47.8039C15.7214 47.8701 15.6501 47.9381 15.5502 48.008C15.5395 48.0154 15.5279 48.02 15.5154 48.0218C15.5029 48.0236 15.4922 48.0282 15.4833 48.0356L15.3656 48.1046C15.3246 48.1285 15.2863 48.1496 15.2506 48.168C15.215 48.1864 15.1757 48.2048 15.1329 48.2232C15.0919 48.2397 15.0402 48.2609 14.9778 48.2866C14.9653 48.2922 14.9466 48.2995 14.9216 48.3087C14.8967 48.3161 14.8717 48.3243 14.8467 48.3335C14.8218 48.3409 14.803 48.3473 14.7906 48.3528C14.7799 48.3584 14.7816 48.3611 14.7959 48.3611H14.7986C14.7701 48.374 14.7415 48.3814 14.713 48.3832C14.6845 48.385 14.6533 48.3887 14.6194 48.3942C14.6194 48.3942 14.6033 48.3961 14.5712 48.3997C14.5391 48.4034 14.5061 48.4099 14.4723 48.4191C14.4865 48.4356 14.499 48.4512 14.5097 48.466C14.5222 48.4788 14.5284 48.4853 14.5284 48.4853C14.548 48.5147 14.5882 48.5616 14.6488 48.626C14.7112 48.6903 14.7772 48.7602 14.8467 48.8356C14.8574 48.8467 14.8628 48.8568 14.8628 48.866C14.8646 48.8733 14.8672 48.8798 14.8708 48.8853C14.8797 48.8871 14.8895 48.8908 14.9002 48.8963C14.9127 48.9018 14.9207 48.9092 14.9243 48.9184C14.9421 48.9331 14.9707 48.9552 15.0099 48.9846C15.0491 49.0159 15.0901 49.0462 15.1329 49.0756C15.1757 49.1069 15.2105 49.1308 15.2372 49.1474H15.2346C15.2578 49.1566 15.2729 49.1658 15.28 49.175C15.289 49.1842 15.2934 49.1924 15.2934 49.1998C15.2934 49.209 15.2881 49.2163 15.2774 49.2219C15.2685 49.2274 15.2604 49.2292 15.2533 49.2274C15.2355 49.2274 15.2069 49.2173 15.1677 49.197C15.1285 49.1768 15.0848 49.152 15.0366 49.1225C14.9903 49.0931 14.9439 49.0628 14.8975 49.0315C14.853 49.0002 14.8146 48.9736 14.7825 48.9515C14.7522 48.9294 14.7166 48.9009 14.6755 48.866C14.6363 48.8292 14.5971 48.7924 14.5579 48.7556C14.5204 48.717 14.4874 48.6839 14.4589 48.6563C14.4304 48.6269 14.4116 48.6067 14.4027 48.5956C14.3991 48.5883 14.384 48.5754 14.3572 48.557C14.3323 48.5368 14.3029 48.5138 14.269 48.488C14.2351 48.4604 14.2021 48.4347 14.17 48.4108C14.1183 48.4807 14.0844 48.5322 14.0684 48.5653C14.0523 48.5984 14.0398 48.6241 14.0309 48.6425C14.0131 48.6664 13.9863 48.6913 13.9507 48.717C13.915 48.7428 13.8927 48.7657 13.8838 48.786C13.8749 48.8062 13.8624 48.8301 13.8464 48.8577C13.8303 48.8853 13.8152 48.912 13.8009 48.9377C13.7866 48.9616 13.7777 48.9809 13.7741 48.9956C13.7688 49.0122 13.7527 49.0407 13.726 49.0812C13.6993 49.1216 13.6761 49.1796 13.6565 49.255C13.6422 49.3175 13.6252 49.3616 13.6056 49.3874C13.5878 49.4131 13.5718 49.426 13.5575 49.426ZM15.0313 47.4149C15.0313 47.4259 15.0286 47.4268 15.0233 47.4176C15.0286 47.3992 15.0313 47.3974 15.0313 47.4121V47.4149Z" fill="#8C5AFF"/>
<path d="M47.6804 37.9329C48.0225 37.9329 48.3418 37.9942 48.6383 38.1169C48.9348 38.2395 49.1933 38.4081 49.4138 38.6226C49.6343 38.8295 49.8091 39.0748 49.9384 39.3583C50.0676 39.6418 50.1323 39.9445 50.1323 40.2664V45.9794H48.6269V44.6H46.7339V45.9794H45.2285V40.2664C45.2285 39.9445 45.2931 39.6418 45.4224 39.3583C45.5516 39.0748 45.7265 38.8295 45.947 38.6226C46.1675 38.4081 46.4259 38.2395 46.7224 38.1169C47.019 37.9942 47.3383 37.9329 47.6804 37.9329ZM48.6269 43.2206V40.2664C48.6269 39.9982 48.5357 39.7721 48.3532 39.5882C48.1708 39.4043 47.9465 39.3123 47.6804 39.3123C47.4143 39.3123 47.19 39.4043 47.0075 39.5882C46.8251 39.7721 46.7339 39.9982 46.7339 40.2664V43.2206H48.6269Z" fill="#8C5AFF"/>
<path d="M42.1281 36.4388H43.8912V45.9796H42.1281V41.2092L40.4853 45.6388L38.8558 41.2092V45.9796H37.0928V36.4388H38.8558L40.4853 40.8684L42.1281 36.4388Z" fill="#8C5AFF"/>
<path d="M33.749 35.1741H35.7551V45.9793H33.749V35.1741Z" fill="#8C5AFF"/>
<path d="M26.0591 36.4548V34.4842H32.4117V36.4548H30.3104V45.9791H28.1603V36.4548H26.0591Z" fill="#8C5AFF"/>
<path d="M22.448 33.7948H24.7216V45.9793H22.448L19.4166 39.0167V45.9793H17.1431V33.7948H19.4166L22.448 40.7574V33.7948Z" fill="#8C5AFF"/>
<path d="M13.354 32.7603H15.8059V45.9794H13.354V32.7603Z" fill="#8C5AFF"/>
<path fill-rule="evenodd" clip-rule="evenodd" d="M31.1303 28.3148C30.6846 28.8666 29.8301 28.698 29.4586 28.5447L30.0159 27.6826C30.2833 27.5446 30.4245 27.012 30.4617 26.763L30.5731 23.0272L30.2945 21.7627L30.0159 20.5557L29.793 19.8086L29.5143 19.2913V18.774L30.9632 17.2222L29.2914 17.0498C29.336 18.5212 28.8271 19.732 28.567 20.1534L27.1182 22.1076L26.8953 22.5674L26.951 23.257V23.5444L26.4495 24.2916L26.1709 25.0388L25.948 24.9813L26.2266 23.8318L26.1151 23.7743L25.2236 24.6364H24.8335L24.2762 24.464L23.9419 24.2341V23.9467C24.9226 23.7168 25.3164 23.1613 25.3907 22.9122L26.2823 21.4753L27.1182 19.6936L27.4525 18.0844L27.6197 16.8774L27.6754 16.0727L27.7869 15.6129L28.0098 15.3256L28.6227 15.1532L30.5174 14.9807L29.9601 14.6381L29.8487 14.6934H29.5143L29.2357 14.5784L29.0685 14.3485V14.0611L25.0564 11.4748L25.335 10.9575L29.4029 13.6013H29.6815L32.2448 13.199C32.2634 12.7584 32.1668 11.7966 31.6319 11.4748C31.0969 11.1529 31.2604 10.6893 31.409 10.4977C30.3836 10.2218 29.3843 9.34823 29.0128 8.94591V7.50905L29.2357 6.18714L29.6815 4.80776L29.9601 3.97383L30.0716 3.88816V3.83069L30.183 3.77322L30.3502 3.65827L30.5174 3.54332L30.6846 3.42837L30.8517 3.31342L31.0746 3.19847H31.2418V3.42837L31.2975 3.48584L31.1861 3.54332L30.9632 3.65827L30.6846 3.88816H30.9632L31.6876 3.65827L32.3006 3.54332L32.412 3.48584C33.259 2.52027 34.7339 1.97235 35.3654 1.81908C36.3127 1.47424 37.873 1.53171 38.4302 2.16393C38.9222 2.72203 39.1825 2.69788 39.3262 2.68455C39.3453 2.68278 39.3623 2.6812 39.3776 2.6812C38.8426 3.14099 38.3374 3.02605 38.1516 2.9111C37.7616 1.76161 35.0868 3.83069 35.644 3.83069C36.0898 3.83069 36.87 4.29048 37.2043 4.52038C37.8284 5.25605 37.2415 5.40166 36.87 5.3825C37.9845 6.30209 39.2661 5.84229 39.7676 5.49745C39.8568 5.72734 38.9132 6.28293 38.4302 6.53199C38.6086 6.76188 39.3218 6.35956 39.6562 6.12967C39.4333 6.68142 38.746 7.04926 38.4302 7.16421C39.8568 8.03782 41.0679 7.41326 41.4951 6.99178C40.871 8.18725 39.7119 8.29454 39.2104 8.19875C40.5478 9.25627 42.1081 8.63938 42.721 8.19875C41.6065 10.2678 37.873 8.94591 37.873 8.94591C37.873 8.94591 39.7491 9.76971 40.3249 9.63561C39.0321 10.6931 36.5542 9.7314 35.4769 9.11834C35.4397 9.30992 35.3877 9.71607 35.4769 9.80803C35.566 9.89999 35.1054 10.9575 34.8639 11.4748L34.4181 13.0841C34.4627 14.0956 35.3283 15.0382 35.7555 15.383L36.7585 15.6129H37.5387C38.564 15.1532 38.8946 14.3102 38.9318 13.9462L39.2104 14.9807V15.9003L38.9875 16.3026L38.8203 16.3601L38.5974 16.6475L38.5417 16.9349L38.3188 17.3947L38.1516 17.7395C38.0625 18.2453 37.4458 18.4484 37.1486 18.4867L39.2661 19.8086L38.5417 18.5441L39.5447 19.4637L39.3313 18.6381C39.4393 18.8972 40.452 19.9578 41.0493 20.5557C42.03 21.6593 45.5444 22.4332 47.179 22.6823L46.7332 22.9697L48.1263 22.9122L47.3462 23.4869L48.2377 23.6594C47.9591 23.6977 47.3684 23.7858 47.2347 23.8318C47.101 23.8778 48.2563 24.2341 48.8507 24.4065C48.9399 24.5445 47.5505 24.5023 46.8446 24.464L47.9034 25.6135L46.566 25.0388L47.4019 25.9009L46.6217 25.4986L47.179 27.1078L46.2317 26.1308L46.4546 27.855L46.3431 27.9125C46.4769 27.5906 45.8416 26.399 45.5072 25.8434L45.6187 26.9929C44.7271 24.7859 41.8294 22.5865 40.4921 21.7627C40.0908 21.2569 38.5045 21.1688 37.7616 21.188L38.876 20.8658C38.5603 20.7816 37.9176 20.5787 37.873 20.4408C37.8284 20.3029 38.7089 20.3833 39.1547 20.4408L35.9226 18.4292C35.1648 19.0269 33.6379 18.7549 32.9693 18.5441L31.5204 19.4063L31.9105 20.7856C32.178 21.4294 32.1334 22.2417 32.0777 22.5674L31.6876 24.8663C31.5093 25.4181 31.9105 25.9775 32.1334 26.1882C32.0442 26.1882 32.0219 27.0312 32.0219 27.4527V28.1998H31.7433L31.5761 27.1653H31.3532V27.4527L31.1861 27.855L31.1303 28.3148ZM39.3218 18.6016C39.3218 18.611 39.3251 18.6232 39.3313 18.6381L39.3218 18.6016ZM32.0777 4.69281V5.09513L32.0219 5.49745H31.8548V5.55492H31.9662L32.0219 5.66987L31.7433 6.01472V6.12967L31.9662 6.35957L31.8548 6.41704V6.58946L31.9662 6.70441L31.8548 6.76189V6.87684L32.0219 6.93431V7.10673L31.9662 7.3941L32.0777 7.50905H32.412L32.8578 7.3941H33.0807L33.2479 7.73895L33.3593 8.19875L33.2479 8.37117L32.8021 8.60107L32.5792 8.65854L31.9105 9.06086H31.2975L30.0159 8.42865L30.0716 6.90557L30.1273 5.3825L30.4059 5.09513L30.6846 4.80776L30.9074 4.69281H32.0777ZM31.799 14.7508L32.2448 14.1761H31.3532H30.4617L31.409 14.8083L31.799 14.7508ZM30.6288 4.52038L30.3502 4.63533L30.2945 4.34796L30.5174 4.17554H30.6288V4.52038ZM33.6378 6.07241C33.6378 6.16763 33.563 6.24483 33.4706 6.24483C33.3783 6.24483 33.3035 6.16763 33.3035 6.07241C33.3035 5.97718 33.3783 5.89998 33.4706 5.89998C33.563 5.89998 33.6378 5.97718 33.6378 6.07241ZM33.5263 6.33129C33.2881 6.33129 33.1387 6.52301 33.1387 6.70483C33.1387 6.88665 33.2881 7.07837 33.5263 7.07837C33.7644 7.07837 33.9138 6.88665 33.9138 6.70483C33.9138 6.52301 33.7644 6.33129 33.5263 6.33129ZM33.5263 7.16463C33.7725 7.16463 33.9721 6.95877 33.9721 6.70483C33.9721 6.45089 33.7725 6.24503 33.5263 6.24503C33.2801 6.24503 33.0805 6.45089 33.0805 6.70483C33.0805 6.95877 33.2801 7.16463 33.5263 7.16463Z" fill="#8C5AFF"/>
</svg>
