<svg width="52" height="32" viewBox="0 0 52 32" fill="none" xmlns="http://www.w3.org/2000/svg">
<path d="M12.0111 29.6541V27.2127C12.0111 26.2766 11.4798 25.6664 10.569 25.6664C10.1136 25.6664 9.6203 25.8291 9.27872 26.3582C9.01321 25.9105 8.63378 25.6664 8.06455 25.6664C7.68494 25.6664 7.30569 25.7884 7.00197 26.236V25.7478H6.20508V29.6541H7.00197V27.4974C7.00197 26.8058 7.34354 26.4801 7.87492 26.4801C8.40595 26.4801 8.67181 26.8464 8.67181 27.4974V29.6541H9.4687V27.4974C9.4687 26.8058 9.84796 26.4801 10.3413 26.4801C10.8727 26.4801 11.1382 26.8464 11.1382 27.4974V29.6541H12.0111ZM23.8125 25.7478H22.5225V24.5677H21.7256V25.7478H21.0046V26.5207H21.7254V28.3113C21.7254 29.2066 22.067 29.7354 22.9778 29.7354C23.3194 29.7354 23.6986 29.6135 23.9645 29.4507L23.7367 28.7182C23.509 28.8809 23.2435 28.9217 23.0537 28.9217C22.6743 28.9217 22.5225 28.6776 22.5225 28.2705V26.5207H23.8125V25.7478ZM30.5673 25.6662C30.112 25.6662 29.8084 25.9105 29.6186 26.236V25.7478H28.8217V29.6541H29.6186V27.4568C29.6186 26.8058 29.8841 26.4395 30.3775 26.4395C30.5292 26.4395 30.719 26.4803 30.8708 26.5209L31.0985 25.7072C30.9467 25.6664 30.719 25.6664 30.5673 25.6664M20.3595 26.0734C19.9799 25.7885 19.4487 25.6666 18.8794 25.6666C17.9688 25.6666 17.3617 26.1548 17.3617 26.928C17.3617 27.5791 17.817 27.9452 18.6139 28.0674L18.9933 28.1081C19.4108 28.1893 19.6385 28.3115 19.6385 28.515C19.6385 28.7997 19.3349 29.0033 18.8035 29.0033C18.2722 29.0033 17.8549 28.7997 17.5892 28.5964L17.2098 29.2474C17.6272 29.5729 18.1965 29.7356 18.7655 29.7356C19.8281 29.7356 20.4354 29.2068 20.4354 28.4742C20.4354 27.7825 19.942 27.4162 19.183 27.2942L18.8035 27.2534C18.462 27.2127 18.1965 27.1315 18.1965 26.8874C18.1965 26.6025 18.462 26.4397 18.8794 26.4397C19.3349 26.4397 19.7902 26.6431 20.0179 26.7652L20.3595 26.0734ZM41.5341 25.6666C41.0786 25.6666 40.7751 25.9107 40.5853 26.2362V25.7479H39.7884V29.6542H40.5853V27.457C40.5853 26.806 40.851 26.4397 41.3441 26.4397C41.4961 26.4397 41.6859 26.4805 41.8377 26.5211L42.0653 25.7073C41.9135 25.6666 41.6859 25.6666 41.5341 25.6666ZM31.3642 27.7011C31.3642 28.8811 32.123 29.7356 33.2995 29.7356C33.8307 29.7356 34.2101 29.6137 34.5896 29.2882L34.2101 28.5964C33.9066 28.8405 33.6031 28.9625 33.2615 28.9625C32.6164 28.9625 32.1611 28.4742 32.1611 27.7011C32.1611 26.9687 32.6164 26.4803 33.2615 26.4397C33.6031 26.4397 33.9066 26.5617 34.2101 26.806L34.5896 26.1142C34.2101 25.7885 33.8307 25.6666 33.2995 25.6666C32.123 25.6666 31.3642 26.5211 31.3642 27.7011ZM38.726 27.7011V25.7479H37.9291V26.2362C37.6634 25.8701 37.284 25.6666 36.7906 25.6666C35.7661 25.6666 34.9692 26.5211 34.9692 27.7011C34.9692 28.8811 35.7661 29.7356 36.7906 29.7356C37.3218 29.7356 37.7014 29.5323 37.9291 29.166V29.6542H38.726V27.7011ZM35.8039 27.7011C35.8039 27.0093 36.2214 26.4397 36.9044 26.4397C37.5495 26.4397 38.005 26.9687 38.005 27.7011C38.005 28.3929 37.5495 28.9625 36.9044 28.9625C36.2214 28.9217 35.8039 28.3929 35.8039 27.7011ZM26.2793 25.6666C25.2167 25.6666 24.4577 26.4803 24.4577 27.7011C24.4577 28.9219 25.2165 29.7356 26.3171 29.7356C26.8483 29.7356 27.3797 29.5729 27.7972 29.2068L27.4176 28.5964C27.114 28.8405 26.7346 29.0033 26.3552 29.0033C25.8618 29.0033 25.3685 28.7591 25.2546 28.0672H27.9489V27.7419C27.987 26.4803 27.304 25.6666 26.2793 25.6666ZM26.2791 26.3989C26.7723 26.3989 27.114 26.7246 27.1897 27.335H25.2924C25.3683 26.806 25.7099 26.3989 26.2791 26.3989ZM46.0496 27.7011V24.2017H45.2527V26.2362C44.987 25.8701 44.6076 25.6666 44.1142 25.6666C43.0897 25.6666 42.2928 26.5211 42.2928 27.7011C42.2928 28.8811 43.0897 29.7356 44.1142 29.7356C44.6456 29.7356 45.025 29.5323 45.2527 29.166V29.6542H46.0496V27.7011ZM43.1277 27.7011C43.1277 27.0093 43.545 26.4397 44.2281 26.4397C44.8733 26.4397 45.3286 26.9687 45.3286 27.7011C45.3286 28.3929 44.8733 28.9625 44.2281 28.9625C43.545 28.9217 43.1277 28.3929 43.1277 27.7011ZM16.4886 27.7011V25.7479H15.6917V26.2362C15.426 25.8701 15.0466 25.6666 14.5532 25.6666C13.5287 25.6666 12.7318 26.5211 12.7318 27.7011C12.7318 28.8811 13.5287 29.7356 14.5532 29.7356C15.0846 29.7356 15.464 29.5323 15.6917 29.166V29.6542H16.4886V27.7011ZM13.5287 27.7011C13.5287 27.0093 13.9461 26.4397 14.6291 26.4397C15.2742 26.4397 15.7297 26.9687 15.7297 27.7011C15.7297 28.3929 15.2742 28.9625 14.6291 28.9625C13.9461 28.9217 13.5287 28.3929 13.5287 27.7011Z" fill="white"/>
<path d="M21.5801 3.1499H26.1629H30.7457V21.2344H21.5801V3.1499Z" fill="#FF5F00"/>
<path d="M21.8483 12.192C21.8483 8.5814 23.5491 5.37888 26.1633 3.30664C24.2421 1.79963 21.8169 0.88916 19.1711 0.88916C12.903 0.88916 7.83203 5.94395 7.83203 12.192C7.83203 18.44 12.903 23.4948 19.171 23.4948C21.8167 23.4948 24.242 22.5843 26.1633 21.0771C23.5491 19.0364 21.8483 15.8025 21.8483 12.192Z" fill="#EB001B"/>
<path d="M44.4953 12.192C44.4953 18.4398 39.4243 23.4948 33.1563 23.4948C30.5106 23.4948 28.0854 22.5843 26.1641 21.0771C28.8098 19.0051 30.4792 15.8025 30.4792 12.192C30.4792 8.5814 28.7782 5.37888 26.1641 3.30664C28.0852 1.79963 30.5106 0.88916 33.1563 0.88916C39.4243 0.88916 44.4953 5.97542 44.4953 12.192Z" fill="#F79E1B"/>
</svg>
