<svg width="24" height="24" viewBox="0 0 24 24" fill="none" xmlns="http://www.w3.org/2000/svg">
<path d="M4.31788 16.3302L4.80934 16.4223L4.84394 16.2375L4.74821 16.0757L4.31788 16.3302ZM3.53012 20.5374L3.03866 20.4454L2.90425 21.1633L3.62214 21.0289L3.53012 20.5374ZM7.77389 19.7428L8.02299 19.3093L7.86311 19.2174L7.68187 19.2514L7.77389 19.7428ZM21.5 11.5C21.5 16.4706 17.4706 20.5 12.5 20.5V21.5C18.0228 21.5 22.5 17.0228 22.5 11.5H21.5ZM12.5 2.5C17.4706 2.5 21.5 6.52944 21.5 11.5H22.5C22.5 5.97715 18.0228 1.5 12.5 1.5V2.5ZM3.5 11.5C3.5 6.52944 7.52944 2.5 12.5 2.5V1.5C6.97715 1.5 2.5 5.97715 2.5 11.5H3.5ZM4.74821 16.0757C3.95524 14.7353 3.5 13.1716 3.5 11.5H2.5C2.5 13.3556 3.00588 15.0946 3.88755 16.5848L4.74821 16.0757ZM3.82642 16.2382L3.03866 20.4454L4.02158 20.6295L4.80934 16.4223L3.82642 16.2382ZM3.62214 21.0289L7.86591 20.2343L7.68187 19.2514L3.4381 20.046L3.62214 21.0289ZM12.5 20.5C10.8692 20.5 9.34113 20.0667 8.02299 19.3093L7.52478 20.1764C8.99047 21.0185 10.6898 21.5 12.5 21.5V20.5Z" fill="white"/>
<path d="M16.1666 14.46V15.96C16.1671 16.0993 16.1433 16.2371 16.0968 16.3647C16.0503 16.4923 15.9821 16.6068 15.8966 16.701C15.8111 16.7951 15.7102 16.8668 15.6002 16.9114C15.4903 16.956 15.3738 16.9726 15.2583 16.96C13.9761 16.7929 12.7445 16.2671 11.6624 15.425C10.6557 14.6574 9.80216 13.6331 9.16243 12.425C8.45826 11.1207 8.02003 9.63555 7.88326 8.09005C7.87285 7.95178 7.88655 7.81243 7.92347 7.68086C7.9604 7.54929 8.01975 7.42839 8.09775 7.32586C8.17575 7.22332 8.27068 7.1414 8.37651 7.08531C8.48234 7.02922 8.59674 7.00018 8.71243 7.00005H9.96243C10.1646 6.99766 10.3607 7.08359 10.514 7.24181C10.6673 7.40004 10.7675 7.61977 10.7958 7.86005C10.8485 8.34008 10.9464 8.81141 11.0874 9.26505C11.1435 9.44401 11.1556 9.63851 11.1224 9.82549C11.0892 10.0125 11.012 10.1841 10.8999 10.32L10.3708 10.955C10.9639 12.2068 11.8276 13.2433 12.8708 13.955L13.3999 13.32C13.5132 13.1856 13.6562 13.093 13.8121 13.0531C13.9679 13.0132 14.13 13.0278 14.2791 13.095C14.6571 13.2643 15.0499 13.3817 15.4499 13.445C15.6523 13.4793 15.8372 13.6017 15.9693 13.7888C16.1015 13.9759 16.1717 14.2148 16.1666 14.46Z" fill="white"/>
</svg>
